<?xml version="1.0" encoding="utf-8"?>
<!-- Generator: Adobe Illustrator 21.0.0, SVG Export Plug-In . SVG Version: 6.00 Build 0)  -->
<svg version="1.1" id="Warstwa_1" xmlns="http://www.w3.org/2000/svg" xmlns:xlink="http://www.w3.org/1999/xlink" x="0px" y="0px"
	 viewBox="0 0 32 32" style="enable-background:new 0 0 32 32;" xml:space="preserve">
<style type="text/css">
	.st0{fill:none;stroke:#EAA636;stroke-width:2.5;stroke-linecap:round;stroke-linejoin:round;}
</style>
<path class="st0" d="M29.3,22.6v4c0,1.5-1.2,2.7-2.7,2.7c-0.1,0-0.2,0-0.3,0c-4.1-0.4-8-1.8-11.5-4.1c-3.2-2-6-4.8-8-8
	c-2.1-3.5-3.5-7.5-4-11.6c-0.1-1.5,1-2.8,2.4-2.9c0.1,0,0.2,0,0.2,0h4c1.3,0,2.5,1,2.7,2.3s0.5,2.5,0.9,3.7c0.4,1,0.1,2.1-0.6,2.8
	l-1.7,1.7c1.9,3.3,4.7,6.1,8,8l1.7-1.7c0.7-0.7,1.8-1,2.8-0.6c1.2,0.5,2.5,0.8,3.7,0.9C28.4,20,29.4,21.2,29.3,22.6z"/>
</svg>
