<svg id="Warstwa_5" data-name="Warstwa 5" xmlns="http://www.w3.org/2000/svg" xmlns:xlink="http://www.w3.org/1999/xlink" viewBox="0 0 1128.98035 847.36553"><defs><style>.cls-1,.cls-73{fill:#d4eeff;}.cls-1{stroke:#d4eeff;stroke-miterlimit:10;stroke-width:0.87777px;}.cls-2{fill:url(#Gradient_bez_nazwy_25);}.cls-3{fill:#88d392;}.cls-4{fill:url(#Gradient_bez_nazwy_25-2);}.cls-5{fill:url(#Gradient_bez_nazwy_25-3);}.cls-6{fill:url(#Gradient_bez_nazwy_25-4);}.cls-7{fill:url(#Gradient_bez_nazwy_25-5);}.cls-8{fill:url(#Gradient_bez_nazwy_25-6);}.cls-9{fill:url(#Gradient_bez_nazwy_25-7);}.cls-10{fill:url(#Gradient_bez_nazwy_25-8);}.cls-11{fill:url(#Gradient_bez_nazwy_25-9);}.cls-12{fill:url(#Gradient_bez_nazwy_25-10);}.cls-13{fill:url(#Gradient_bez_nazwy_25-11);}.cls-14{fill:url(#Gradient_bez_nazwy_25-12);}.cls-15{fill:url(#Gradient_bez_nazwy_25-13);}.cls-16{fill:url(#Gradient_bez_nazwy_25-14);}.cls-17{fill:url(#Gradient_bez_nazwy_25-15);}.cls-18{fill:url(#Gradient_bez_nazwy_25-16);}.cls-19{fill:url(#Gradient_bez_nazwy_25-17);}.cls-20{fill:url(#Gradient_bez_nazwy_25-18);}.cls-21{fill:url(#Gradient_bez_nazwy_25-19);}.cls-22{fill:url(#Gradient_bez_nazwy_25-20);}.cls-23{fill:url(#Gradient_bez_nazwy_25-21);}.cls-24{fill:url(#Gradient_bez_nazwy_25-22);}.cls-25{fill:url(#Gradient_bez_nazwy_25-23);}.cls-26{fill:url(#Gradient_bez_nazwy_25-24);}.cls-27{fill:url(#Gradient_bez_nazwy_25-25);}.cls-28{fill:url(#Gradient_bez_nazwy_25-26);}.cls-29{fill:url(#Gradient_bez_nazwy_25-27);}.cls-30{fill:url(#Gradient_bez_nazwy_25-28);}.cls-31{fill:url(#Gradient_bez_nazwy_25-29);}.cls-32{fill:url(#Gradient_bez_nazwy_25-30);}.cls-33{fill:url(#Gradient_bez_nazwy_25-31);}.cls-34{fill:url(#Gradient_bez_nazwy_25-32);}.cls-35{fill:url(#Gradient_bez_nazwy_25-33);}.cls-36{fill:url(#Gradient_bez_nazwy_25-34);}.cls-37{fill:url(#Gradient_bez_nazwy_25-35);}.cls-38{fill:url(#Gradient_bez_nazwy_25-36);}.cls-39{fill:url(#Gradient_bez_nazwy_25-37);}.cls-40{fill:url(#Gradient_bez_nazwy_25-38);}.cls-41{opacity:0.6;}.cls-42{fill:url(#linear-gradient);}.cls-43{fill:url(#linear-gradient-2);}.cls-44{fill:url(#linear-gradient-3);}.cls-45{fill:url(#linear-gradient-4);}.cls-46{fill:url(#linear-gradient-5);}.cls-47{fill:url(#linear-gradient-6);}.cls-48{fill:url(#linear-gradient-7);}.cls-49{fill:url(#linear-gradient-8);}.cls-50{fill:url(#linear-gradient-9);}.cls-51{fill:url(#linear-gradient-10);}.cls-52{fill:url(#linear-gradient-11);}.cls-53{fill:url(#linear-gradient-12);}.cls-54{fill:url(#linear-gradient-13);}.cls-55{fill:url(#linear-gradient-14);}.cls-56{fill:url(#linear-gradient-15);}.cls-57{fill:url(#linear-gradient-16);}.cls-58{fill:url(#linear-gradient-17);}.cls-59{fill:url(#linear-gradient-18);}.cls-60{fill:url(#linear-gradient-19);}.cls-61{fill:url(#linear-gradient-20);}.cls-62{fill:url(#linear-gradient-21);}.cls-63{fill:url(#linear-gradient-22);}.cls-64{fill:url(#linear-gradient-23);}.cls-65{fill:url(#linear-gradient-24);}.cls-66{fill:url(#linear-gradient-25);}.cls-67{fill:url(#linear-gradient-26);}.cls-68{fill:#ef9849;}.cls-69{fill:#e7f1fd;}.cls-70{fill:#fff;}.cls-71{fill:#e68639;}.cls-72{fill:#e6e6e6;}.cls-74{fill:#ffaf7b;}.cls-75{fill:#2a4f96;}.cls-76{fill:#aa453d;}.cls-77{fill:#722d2b;}.cls-78{fill:#1b406d;}.cls-79{fill:#213c73;}.cls-80{fill:#a24c4b;}.cls-81{fill:#ee985f;}.cls-82{fill:#2b468b;}.cls-83{fill:#23395e;}.cls-84{fill:#253765;}.cls-85{fill:#2d3a64;}</style><linearGradient id="Gradient_bez_nazwy_25" x1="387.18069" y1="360.64332" x2="398.18357" y2="360.64332" gradientTransform="translate(-9.43311 -66.00983) rotate(-2.77554)" gradientUnits="userSpaceOnUse"><stop offset="0" stop-color="#88d392"/><stop offset="0.3764" stop-color="#66bd8f"/><stop offset="1" stop-color="#66ab86"/></linearGradient><linearGradient id="Gradient_bez_nazwy_25-2" x1="326.54604" y1="422.04732" x2="399.75126" y2="422.04732" xlink:href="#Gradient_bez_nazwy_25"/><linearGradient id="Gradient_bez_nazwy_25-3" x1="283.43735" y1="392.13012" x2="377.4606" y2="392.13012" xlink:href="#Gradient_bez_nazwy_25"/><linearGradient id="Gradient_bez_nazwy_25-4" x1="257.08366" y1="358.90759" x2="351.02135" y2="358.90759" xlink:href="#Gradient_bez_nazwy_25"/><linearGradient id="Gradient_bez_nazwy_25-5" x1="235.45464" y1="333.20842" x2="335.12899" y2="333.20842" xlink:href="#Gradient_bez_nazwy_25"/><linearGradient id="Gradient_bez_nazwy_25-6" x1="229.43965" y1="308.65627" x2="321.31814" y2="308.65627" xlink:href="#Gradient_bez_nazwy_25"/><linearGradient id="Gradient_bez_nazwy_25-7" x1="195.79942" y1="274.53642" x2="297.48172" y2="274.53642" xlink:href="#Gradient_bez_nazwy_25"/><linearGradient id="Gradient_bez_nazwy_25-8" x1="207.8106" y1="244.31112" x2="288.25714" y2="244.31112" xlink:href="#Gradient_bez_nazwy_25"/><linearGradient id="Gradient_bez_nazwy_25-9" x1="208.43631" y1="207.62825" x2="273.4356" y2="207.62825" xlink:href="#Gradient_bez_nazwy_25"/><linearGradient id="Gradient_bez_nazwy_25-10" x1="224.35275" y1="165.68241" x2="260.29237" y2="165.68241" xlink:href="#Gradient_bez_nazwy_25"/><linearGradient id="Gradient_bez_nazwy_25-11" x1="365.14079" y1="346.92018" x2="377.33666" y2="346.92018" xlink:href="#Gradient_bez_nazwy_25"/><linearGradient id="Gradient_bez_nazwy_25-12" x1="354.521" y1="326.3101" x2="362.94531" y2="326.3101" xlink:href="#Gradient_bez_nazwy_25"/><linearGradient id="Gradient_bez_nazwy_25-13" x1="337.78661" y1="314.77534" x2="346.27474" y2="314.77534" xlink:href="#Gradient_bez_nazwy_25"/><linearGradient id="Gradient_bez_nazwy_25-14" x1="325.86004" y1="287.60495" x2="333.95539" y2="287.60495" xlink:href="#Gradient_bez_nazwy_25"/><linearGradient id="Gradient_bez_nazwy_25-15" x1="312.06161" y1="269.73344" x2="320.15697" y2="269.73344" xlink:href="#Gradient_bez_nazwy_25"/><linearGradient id="Gradient_bez_nazwy_25-16" x1="295.03974" y1="241.4622" x2="303.13509" y2="241.4622" xlink:href="#Gradient_bez_nazwy_25"/><linearGradient id="Gradient_bez_nazwy_25-17" x1="276.03793" y1="207.45752" x2="286.01045" y2="207.45752" xlink:href="#Gradient_bez_nazwy_25"/><linearGradient id="Gradient_bez_nazwy_25-18" x1="262.38815" y1="178.98454" x2="271.40543" y2="178.98454" xlink:href="#Gradient_bez_nazwy_25"/><linearGradient id="Gradient_bez_nazwy_25-19" x1="259.3024" y1="321.53305" x2="420.85844" y2="321.53305" xlink:href="#Gradient_bez_nazwy_25"/><linearGradient id="Gradient_bez_nazwy_25-20" x1="-1730.37297" y1="303.97777" x2="-1719.37009" y2="303.97777" gradientTransform="matrix(-0.99883, -0.04842, -0.04842, 0.99883, -1004.18025, -66.00983)" xlink:href="#Gradient_bez_nazwy_25"/><linearGradient id="Gradient_bez_nazwy_25-21" x1="-1791.00763" y1="365.38177" x2="-1717.80241" y2="365.38177" gradientTransform="matrix(-0.99883, -0.04842, -0.04842, 0.99883, -1004.18025, -66.00983)" xlink:href="#Gradient_bez_nazwy_25"/><linearGradient id="Gradient_bez_nazwy_25-22" x1="-1834.11631" y1="335.46457" x2="-1740.09306" y2="335.46457" gradientTransform="matrix(-0.99883, -0.04842, -0.04842, 0.99883, -1004.18025, -66.00983)" xlink:href="#Gradient_bez_nazwy_25"/><linearGradient id="Gradient_bez_nazwy_25-23" x1="-1860.47" y1="302.24204" x2="-1766.53231" y2="302.24204" gradientTransform="matrix(-0.99883, -0.04842, -0.04842, 0.99883, -1004.18025, -66.00983)" xlink:href="#Gradient_bez_nazwy_25"/><linearGradient id="Gradient_bez_nazwy_25-24" x1="-1882.09903" y1="276.54287" x2="-1782.42467" y2="276.54287" gradientTransform="matrix(-0.99883, -0.04842, -0.04842, 0.99883, -1004.18025, -66.00983)" xlink:href="#Gradient_bez_nazwy_25"/><linearGradient id="Gradient_bez_nazwy_25-25" x1="-1888.11402" y1="251.99072" x2="-1796.23552" y2="251.99072" gradientTransform="matrix(-0.99883, -0.04842, -0.04842, 0.99883, -1004.18025, -66.00983)" xlink:href="#Gradient_bez_nazwy_25"/><linearGradient id="Gradient_bez_nazwy_25-26" x1="-1921.75424" y1="217.87087" x2="-1820.07195" y2="217.87087" gradientTransform="matrix(-0.99883, -0.04842, -0.04842, 0.99883, -1004.18025, -66.00983)" xlink:href="#Gradient_bez_nazwy_25"/><linearGradient id="Gradient_bez_nazwy_25-27" x1="-1909.74307" y1="187.64557" x2="-1829.29652" y2="187.64557" gradientTransform="matrix(-0.99883, -0.04842, -0.04842, 0.99883, -1004.18025, -66.00983)" xlink:href="#Gradient_bez_nazwy_25"/><linearGradient id="Gradient_bez_nazwy_25-28" x1="-1909.11735" y1="150.9627" x2="-1844.11806" y2="150.9627" gradientTransform="matrix(-0.99883, -0.04842, -0.04842, 0.99883, -1004.18025, -66.00983)" xlink:href="#Gradient_bez_nazwy_25"/><linearGradient id="Gradient_bez_nazwy_25-29" x1="-1893.20091" y1="109.01686" x2="-1857.2613" y2="109.01686" gradientTransform="matrix(-0.99883, -0.04842, -0.04842, 0.99883, -1004.18025, -66.00983)" xlink:href="#Gradient_bez_nazwy_25"/><linearGradient id="Gradient_bez_nazwy_25-30" x1="-1752.41288" y1="290.25463" x2="-1740.217" y2="290.25463" gradientTransform="matrix(-0.99883, -0.04842, -0.04842, 0.99883, -1004.18025, -66.00983)" xlink:href="#Gradient_bez_nazwy_25"/><linearGradient id="Gradient_bez_nazwy_25-31" x1="-1763.03266" y1="269.64455" x2="-1754.60835" y2="269.64455" gradientTransform="matrix(-0.99883, -0.04842, -0.04842, 0.99883, -1004.18025, -66.00983)" xlink:href="#Gradient_bez_nazwy_25"/><linearGradient id="Gradient_bez_nazwy_25-32" x1="-1779.76706" y1="258.10979" x2="-1771.27892" y2="258.10979" gradientTransform="matrix(-0.99883, -0.04842, -0.04842, 0.99883, -1004.18025, -66.00983)" xlink:href="#Gradient_bez_nazwy_25"/><linearGradient id="Gradient_bez_nazwy_25-33" x1="-1791.69363" y1="230.9394" x2="-1783.59827" y2="230.9394" gradientTransform="matrix(-0.99883, -0.04842, -0.04842, 0.99883, -1004.18025, -66.00983)" xlink:href="#Gradient_bez_nazwy_25"/><linearGradient id="Gradient_bez_nazwy_25-34" x1="-1805.49205" y1="213.06789" x2="-1797.39669" y2="213.06789" gradientTransform="matrix(-0.99883, -0.04842, -0.04842, 0.99883, -1004.18025, -66.00983)" xlink:href="#Gradient_bez_nazwy_25"/><linearGradient id="Gradient_bez_nazwy_25-35" x1="-1822.51393" y1="184.79665" x2="-1814.41857" y2="184.79665" gradientTransform="matrix(-0.99883, -0.04842, -0.04842, 0.99883, -1004.18025, -66.00983)" xlink:href="#Gradient_bez_nazwy_25"/><linearGradient id="Gradient_bez_nazwy_25-36" x1="-1841.51573" y1="150.79197" x2="-1831.54321" y2="150.79197" gradientTransform="matrix(-0.99883, -0.04842, -0.04842, 0.99883, -1004.18025, -66.00983)" xlink:href="#Gradient_bez_nazwy_25"/><linearGradient id="Gradient_bez_nazwy_25-37" x1="-1855.16551" y1="122.31899" x2="-1846.14823" y2="122.31899" gradientTransform="matrix(-0.99883, -0.04842, -0.04842, 0.99883, -1004.18025, -66.00983)" xlink:href="#Gradient_bez_nazwy_25"/><linearGradient id="Gradient_bez_nazwy_25-38" x1="-1858.25127" y1="264.8675" x2="-1696.69523" y2="264.8675" gradientTransform="matrix(-0.99883, -0.04842, -0.04842, 0.99883, -1004.18025, -66.00983)" xlink:href="#Gradient_bez_nazwy_25"/><linearGradient id="linear-gradient" x1="-507.77807" y1="1599.12817" x2="-479.19279" y2="1613.61508" gradientTransform="matrix(0.60302, -0.79772, 0.79772, 0.60302, -704.93148, -961.57309)" gradientUnits="userSpaceOnUse"><stop offset="0.3764" stop-color="#00a651"/><stop offset="0.77838" stop-color="#005826"/></linearGradient><linearGradient id="linear-gradient-2" x1="-552.28555" y1="1612.31642" x2="-488.4338" y2="1644.67624" xlink:href="#linear-gradient"/><linearGradient id="linear-gradient-3" x1="-598.01812" y1="1634.0889" x2="-494.04018" y2="1686.78452" xlink:href="#linear-gradient"/><linearGradient id="linear-gradient-4" x1="-630.32455" y1="1669.41171" x2="-516.10548" y2="1727.29749" xlink:href="#linear-gradient"/><linearGradient id="linear-gradient-5" x1="-653.66975" y1="1715.71113" x2="-528.6344" y2="1779.07856" xlink:href="#linear-gradient"/><linearGradient id="linear-gradient-6" x1="-648.37766" y1="1770.78537" x2="-536.29078" y2="1827.59056" xlink:href="#linear-gradient"/><linearGradient id="linear-gradient-7" x1="-437.99384" y1="1602.74661" x2="-538.45441" y2="1620.49868" xlink:href="#linear-gradient"/><linearGradient id="linear-gradient-8" x1="-412.65035" y1="1630.27122" x2="-562.19716" y2="1656.69716" xlink:href="#linear-gradient"/><linearGradient id="linear-gradient-9" x1="-394.75398" y1="1664.94307" x2="-596.50203" y2="1700.59333" xlink:href="#linear-gradient"/><linearGradient id="linear-gradient-10" x1="-421.80138" y1="1714.17116" x2="-602.13263" y2="1746.03692" xlink:href="#linear-gradient"/><linearGradient id="linear-gradient-11" x1="-348.1352" y1="1749.01556" x2="-597.79559" y2="1793.13226" xlink:href="#linear-gradient"/><linearGradient id="linear-gradient-12" x1="-487.95642" y1="1798.48026" x2="-553.68504" y2="1836.78568" xlink:href="#linear-gradient"/><linearGradient id="linear-gradient-13" x1="-444.28009" y1="1740.31557" x2="-570.10434" y2="1762.54957" xlink:href="#linear-gradient"/><linearGradient id="linear-gradient-14" x1="-2342.67524" y1="-663.445" x2="-2322.03649" y2="-652.98536" gradientTransform="matrix(-0.52461, -0.82932, -0.83873, 0.53056, -905.294, -1109.64671)" xlink:href="#linear-gradient"/><linearGradient id="linear-gradient-15" x1="-2374.80994" y1="-653.923" x2="-2328.70855" y2="-630.559" gradientTransform="matrix(-0.52461, -0.82932, -0.83873, 0.53056, -905.294, -1109.64671)" xlink:href="#linear-gradient"/><linearGradient id="linear-gradient-16" x1="-2407.82914" y1="-638.20313" x2="-2332.7564" y2="-600.15655" gradientTransform="matrix(-0.52461, -0.82932, -0.83873, 0.53056, -905.294, -1109.64671)" xlink:href="#linear-gradient"/><linearGradient id="linear-gradient-17" x1="-2431.1546" y1="-612.69983" x2="-2348.68769" y2="-570.90592" gradientTransform="matrix(-0.52461, -0.82932, -0.83873, 0.53056, -905.294, -1109.64671)" xlink:href="#linear-gradient"/><linearGradient id="linear-gradient-18" x1="-2448.00998" y1="-579.27135" x2="-2357.73365" y2="-533.51965" gradientTransform="matrix(-0.52461, -0.82932, -0.83873, 0.53056, -905.294, -1109.64671)" xlink:href="#linear-gradient"/><linearGradient id="linear-gradient-19" x1="-2444.18906" y1="-539.50739" x2="-2363.2616" y2="-498.49367" gradientTransform="matrix(-0.52461, -0.82932, -0.83873, 0.53056, -905.294, -1109.64671)" xlink:href="#linear-gradient"/><linearGradient id="linear-gradient-20" x1="-2292.29058" y1="-660.83246" x2="-2364.82376" y2="-648.01536" gradientTransform="matrix(-0.52461, -0.82932, -0.83873, 0.53056, -905.294, -1109.64671)" xlink:href="#linear-gradient"/><linearGradient id="linear-gradient-21" x1="-2273.99241" y1="-640.95952" x2="-2381.96618" y2="-621.87982" gradientTransform="matrix(-0.52461, -0.82932, -0.83873, 0.53056, -905.294, -1109.64671)" xlink:href="#linear-gradient"/><linearGradient id="linear-gradient-22" x1="-2261.07112" y1="-615.92622" x2="-2406.73452" y2="-590.1865" gradientTransform="matrix(-0.52461, -0.82932, -0.83873, 0.53056, -905.294, -1109.64671)" xlink:href="#linear-gradient"/><linearGradient id="linear-gradient-23" x1="-2280.59952" y1="-580.38322" x2="-2410.79985" y2="-557.37593" gradientTransform="matrix(-0.52461, -0.82932, -0.83873, 0.53056, -905.294, -1109.64671)" xlink:href="#linear-gradient"/><linearGradient id="linear-gradient-24" x1="-2227.41206" y1="-555.22533" x2="-2407.66848" y2="-523.37279" gradientTransform="matrix(-0.52461, -0.82932, -0.83873, 0.53056, -905.294, -1109.64671)" xlink:href="#linear-gradient"/><linearGradient id="linear-gradient-25" x1="-2328.36388" y1="-519.5115" x2="-2375.82037" y2="-491.85474" gradientTransform="matrix(-0.52461, -0.82932, -0.83873, 0.53056, -905.294, -1109.64671)" xlink:href="#linear-gradient"/><linearGradient id="linear-gradient-26" x1="-2296.82929" y1="-561.50678" x2="-2387.67522" y2="-545.45369" gradientTransform="matrix(-0.52461, -0.82932, -0.83873, 0.53056, -905.294, -1109.64671)" xlink:href="#linear-gradient"/></defs><title>dg_home</title><g id="background"><path class="cls-1" d="M100.80724,526.55095S35.80276,286.45448,307.91035,140.74525,869.68087,17.85795,989.0571,79.3016,985.546,316.29853,1007.4902,360.18686s134.73484,135.67844,5.70963,246.27148c-99.23086,85.055-557.02111,119.45056-787.79952,37.24708C156.10841,619.02357,115.41262,570.643,100.80724,526.55095Z"/></g><g id="leafs"><path class="cls-2" d="M403.59765,326.25516s-12.03161-51.5899-10.23409-101.9477C393.36357,224.30746,414.941,293.44368,403.59765,326.25516Z"/><path class="cls-3" d="M403.59765,326.25516s-21.91456-18.43232-10.23409-101.9477C393.36357,224.30746,400.18672,296.19689,403.59765,326.25516Z"/><path class="cls-4" d="M410.1979,334.3648a245.33332,245.33332,0,0,0-73.09148,4.11967S381.1032,349.166,410.1979,334.3648Z"/><path class="cls-3" d="M410.1979,334.3648s-5.57919-17.72671-73.09148,4.11967C337.10642,338.48447,388.79736,335.21717,410.1979,334.3648Z"/><path class="cls-5" d="M387.141,319.09883s-46.777-16.91974-95.09477-19.82447C292.04619,299.27437,353.66225,327.43028,387.141,319.09883Z"/><path class="cls-3" d="M387.141,319.09883s-13.2553-23.75095-95.09477-19.82447C292.04619,299.27437,359.18045,312.85827,387.141,319.09883Z"/><path class="cls-6" d="M359.353,291.91986s-47.64335-20.89057-95.4305-28.51641C263.92252,263.40345,327.25376,296.54035,359.353,291.91986Z"/><path class="cls-3" d="M359.353,291.91986s-15.355-24.07028-95.4305-28.51641C263.92252,263.40345,331.25353,283.14112,359.353,291.91986Z"/><path class="cls-7" d="M342.41825,270.80324s-51.11433-24.62883-101.51918-35.63851C240.89907,235.16474,309.19208,273.41812,342.41825,270.80324Z"/><path class="cls-3" d="M342.41825,270.80324s-17.59734-25.75084-101.51918-35.63851C240.89907,235.16474,312.50119,259.91692,342.41825,270.80324Z"/><path class="cls-8" d="M327.81781,254.85084s-46.50971-32.6778-94.4978-51.8025C233.32,203.04834,294.60548,251.98421,327.81781,254.85084Z"/><path class="cls-3" d="M327.81781,254.85084s-13.24916-28.29062-94.4978-51.8025C233.32,203.04834,300.03131,239.20623,327.81781,254.85084Z"/><path class="cls-9" d="M302.27679,220.26766s-50.52044-31.65046-104.12938-48.01257C198.14741,172.25508,264.12069,220.52292,302.27679,220.26766Z"/><path class="cls-3" d="M302.27679,220.26766s-12.463-30.21277-104.12938-48.01257C198.14741,172.25508,271.70009,205.68933,302.27679,220.26766Z"/><path class="cls-10" d="M292.30875,205.15576s-38.35914-45.932-84.33719-78.30339C207.97156,126.85236,255.93976,193.42591,292.30875,205.15576Z"/><path class="cls-3" d="M292.30875,205.15576s-2.60239-32.62418-84.33719-78.30339C207.97156,126.85236,267.69078,181.7066,292.30875,205.15576Z"/><path class="cls-11" d="M275.76829,170.05874s-32.30381-46.31951-68.98807-80.70163C206.78023,89.35711,247.99607,155.79249,275.76829,170.05874Z"/><path class="cls-3" d="M275.76829,170.05874s-4.83977-30.639-68.98807-80.70163C206.78023,89.35711,255.57756,145.94992,275.76829,170.05874Z"/><path class="cls-12" d="M261.00442,136.94824S244.54657,82.765,220.25174,38.54005C220.25174,38.54005,238.99257,114.64092,261.00442,136.94824Z"/><path class="cls-3" d="M261.00442,136.94824s4.8259-30.62963-40.75268-98.40818C220.25174,38.54005,249.22805,107.68179,261.00442,136.94824Z"/><path class="cls-13" d="M383.60828,310.79814s-13.10549-49.09333-13.6941-96.40626C369.91418,214.39188,392.3919,280.42726,383.60828,310.79814Z"/><path class="cls-3" d="M383.60828,310.79814s-20.55781-18.33116-13.6941-96.40626C369.91418,214.39188,379.21608,282.356,383.60828,310.79814Z"/><path class="cls-14" d="M365.37539,291.26185s-8.35809-50.14011-4.42647-97.28368C360.94892,193.97817,377.01877,261.89607,365.37539,291.26185Z"/><path class="cls-3" d="M365.37539,291.26185s-18.71362-20.25465-4.42647-97.28368C360.94892,193.97817,363.719,262.52645,365.37539,291.26185Z"/><path class="cls-15" d="M350.26483,277.69471s-9.63467-47.49509-8.40948-91.58778C341.85535,186.10692,359.04784,250.66908,350.26483,277.69471Z"/><path class="cls-3" d="M350.26483,277.69471s-17.27-19.91975-8.40948-91.58778C341.85535,186.10692,347.47649,250.62505,350.26483,277.69471Z"/><path class="cls-16" d="M332.69523,254.91593s-4.9148-52.27574.895-99.18236C333.59019,155.73357,344.44844,227.44843,332.69523,254.91593Z"/><path class="cls-3" d="M332.69523,254.91593s-15.55434-24.03771.895-99.18236C333.59019,155.73357,332.65087,225.55326,332.69523,254.91593Z"/><path class="cls-17" d="M318.04759,237.73356s-4.9148-52.27574.895-99.18236C318.94255,138.5512,329.8008,210.26605,318.04759,237.73356Z"/><path class="cls-3" d="M318.04759,237.73356s-15.55434-24.03771.895-99.18236C318.94255,138.5512,318.00323,208.37088,318.04759,237.73356Z"/><path class="cls-18" d="M299.6767,210.31973s-4.9148-52.27574.895-99.18236C300.57166,111.13737,311.42991,182.85223,299.6767,210.31973Z"/><path class="cls-3" d="M299.6767,210.31973s-15.55434-24.03771.895-99.18236C300.57166,111.13737,299.63234,180.95706,299.6767,210.31973Z"/><path class="cls-19" d="M278.56807,173.81349s-3.08166-48.49313,4.5657-92.39036C283.13377,81.42313,291.55484,147.79384,278.56807,173.81349Z"/><path class="cls-3" d="M278.56807,173.81349s-14.96214-21.7979,4.5657-92.39036C283.13377,81.42313,279.60459,146.47321,278.56807,173.81349Z"/><path class="cls-20" d="M263.34176,141.64746S260.55232,97.78183,267.4671,58.074C267.4671,58.074,275.08664,118.11143,263.34176,141.64746Z"/><path class="cls-3" d="M263.34176,141.64746S249.80806,121.929,267.4671,58.074C267.4671,58.074,264.278,116.91628,263.34176,141.64746Z"/><path class="cls-21" d="M259.70566,130.603s12.109,46.5765,44.81822,93.43544S396.91432,339.578,430.11753,346.84132c0,0,4.68-4.79769-1.756-6.99786s-32.07521-16.70468-54.71567-40.73168-46.76064-46.96742-67.80221-81.55789S259.70566,130.603,259.70566,130.603Z"/><path class="cls-22" d="M700.60249,372.19511s12.03161-51.5899,10.23409-101.9477C710.83657,270.24741,689.25914,339.38364,700.60249,372.19511Z"/><path class="cls-3" d="M700.60249,372.19511s21.91456-18.43232,10.23409-101.9477C710.83657,270.24741,704.01342,342.13684,700.60249,372.19511Z"/><path class="cls-23" d="M694.00224,380.30475a245.33332,245.33332,0,0,1,73.09148,4.11967S723.09694,395.10593,694.00224,380.30475Z"/><path class="cls-3" d="M694.00224,380.30475s5.57919-17.72671,73.09148,4.11967C767.09372,384.42442,715.40278,381.15712,694.00224,380.30475Z"/><path class="cls-24" d="M717.05918,365.03879s46.777-16.91974,95.09477-19.82447C812.15395,345.21432,750.53789,373.37023,717.05918,365.03879Z"/><path class="cls-3" d="M717.05918,365.03879s13.2553-23.75095,95.09477-19.82447C812.15395,345.21432,745.01969,358.79822,717.05918,365.03879Z"/><path class="cls-25" d="M744.84712,337.85981s47.64335-20.89057,95.4305-28.51641C840.27762,309.3434,776.94638,342.4803,744.84712,337.85981Z"/><path class="cls-3" d="M744.84712,337.85981s15.355-24.07028,95.4305-28.51641C840.27762,309.3434,772.94661,329.08107,744.84712,337.85981Z"/><path class="cls-26" d="M761.78189,316.74319s51.11433-24.62883,101.51918-35.63851C863.30107,281.10469,795.00806,319.35807,761.78189,316.74319Z"/><path class="cls-3" d="M761.78189,316.74319s17.59734-25.75084,101.51918-35.63851C863.30107,281.10469,791.699,305.85687,761.78189,316.74319Z"/><path class="cls-27" d="M776.38233,300.79079s46.50971-32.6778,94.4978-51.8025C870.88013,248.98829,809.59466,297.92416,776.38233,300.79079Z"/><path class="cls-3" d="M776.38233,300.79079s13.24916-28.29062,94.4978-51.8025C870.88013,248.98829,804.16883,285.14618,776.38233,300.79079Z"/><path class="cls-28" d="M801.92335,266.20761s50.52044-31.65046,104.12938-48.01257C906.05273,218.195,840.07945,266.46288,801.92335,266.20761Z"/><path class="cls-3" d="M801.92335,266.20761s12.463-30.21277,104.12938-48.01257C906.05273,218.195,832.50005,251.62928,801.92335,266.20761Z"/><path class="cls-29" d="M811.89139,251.09571s38.35914-45.932,84.33719-78.30339C896.22858,172.79232,848.26038,239.36586,811.89139,251.09571Z"/><path class="cls-3" d="M811.89139,251.09571s2.60239-32.62418,84.33719-78.30339C896.22858,172.79232,836.50936,227.64655,811.89139,251.09571Z"/><path class="cls-30" d="M828.43185,215.99869s32.30381-46.31951,68.98807-80.70163C897.41991,135.29706,856.20407,201.73244,828.43185,215.99869Z"/><path class="cls-3" d="M828.43185,215.99869s4.83977-30.639,68.98807-80.70163C897.41991,135.29706,848.62258,191.88988,828.43185,215.99869Z"/><path class="cls-31" d="M843.19572,182.88819S859.65357,128.705,883.9484,84.48C883.9484,84.48,865.20757,160.58087,843.19572,182.88819Z"/><path class="cls-3" d="M843.19572,182.88819S838.36982,152.25856,883.9484,84.48C883.9484,84.48,854.97209,153.62174,843.19572,182.88819Z"/><path class="cls-32" d="M720.59186,356.73809s13.10549-49.09333,13.6941-96.40626C734.286,260.33183,711.80824,326.36722,720.59186,356.73809Z"/><path class="cls-3" d="M720.59186,356.73809s20.55781-18.33116,13.6941-96.40626C734.286,260.33183,724.98406,328.296,720.59186,356.73809Z"/><path class="cls-33" d="M738.82475,337.2018s8.35809-50.14011,4.42647-97.28368C743.25122,239.91812,727.18137,307.836,738.82475,337.2018Z"/><path class="cls-3" d="M738.82475,337.2018s18.71362-20.25465,4.42647-97.28368C743.25122,239.91812,740.48117,308.4664,738.82475,337.2018Z"/><path class="cls-34" d="M753.93531,323.63466s9.63467-47.49509,8.40948-91.58778C762.34479,232.04688,745.1523,296.609,753.93531,323.63466Z"/><path class="cls-3" d="M753.93531,323.63466s17.27-19.91975,8.40948-91.58778C762.34479,232.04688,756.72365,296.565,753.93531,323.63466Z"/><path class="cls-35" d="M771.50491,300.85588s4.9148-52.27574-.895-99.18236C770.61,201.67352,759.7517,273.38838,771.50491,300.85588Z"/><path class="cls-3" d="M771.50491,300.85588s15.55434-24.03771-.895-99.18236C770.61,201.67352,771.54928,271.49321,771.50491,300.85588Z"/><path class="cls-36" d="M786.15255,283.67351s4.9148-52.27574-.895-99.18236C785.25759,184.49115,774.39934,256.206,786.15255,283.67351Z"/><path class="cls-3" d="M786.15255,283.67351s15.55434-24.03771-.895-99.18236C785.25759,184.49115,786.19691,254.31084,786.15255,283.67351Z"/><path class="cls-37" d="M804.52344,256.25969s4.9148-52.27574-.895-99.18236C803.62848,157.07733,792.77023,228.79218,804.52344,256.25969Z"/><path class="cls-3" d="M804.52344,256.25969s15.55434-24.03771-.895-99.18236C803.62848,157.07733,804.5678,226.897,804.52344,256.25969Z"/><path class="cls-38" d="M825.63207,219.75344s3.08166-48.49313-4.5657-92.39036C821.06637,127.36308,812.6453,193.73379,825.63207,219.75344Z"/><path class="cls-3" d="M825.63207,219.75344s14.96214-21.7979-4.5657-92.39036C821.06637,127.36308,824.59555,192.41316,825.63207,219.75344Z"/><path class="cls-39" d="M840.85838,187.58741s2.78944-43.86562-4.12535-83.57343C836.733,104.014,829.1135,164.05139,840.85838,187.58741Z"/><path class="cls-3" d="M840.85838,187.58741S854.39208,167.869,836.733,104.014C836.733,104.014,839.92212,162.85624,840.85838,187.58741Z"/><path class="cls-40" d="M844.49448,176.54292s-12.109,46.5765-44.81822,93.43544-92.39044,115.53954-125.59365,122.8029c0,0-4.68-4.79769,1.756-6.99786s32.07521-16.70468,54.71567-40.73168,46.76064-46.96742,67.80221-81.55789S844.49448,176.54292,844.49448,176.54292Z"/><g class="cls-41"><path class="cls-42" d="M267.89484,368.83075s-5.1896,12.83977-9.93144,20.958,32.46813,35.72978,32.46813,35.72978l14.5829-.16245Z"/><path class="cls-43" d="M291.29844,414.98773s-4.71657,4.07389-14.82067-6.0196-18.51437-19.1794-18.51437-19.1794-10.96983,11.6243-1.55609,20.1046,25.395,18.37839,21.41118,24.37034-14.66675,7.1309-22.92092-6.8535-10.73134-15.03847-10.73134-15.03847l-2.77262,7.99888s-5.423,23.77639,17.89307,36.60371,59.99817,16.27439,59.99817,16.27439l1.5096-19.32125Z"/><path class="cls-44" d="M317.57748,464.31872s-18.00578.35942-41.81117-8.93325-34.46038-23.3494-34.37269-35.0149c0,0-15.86707,28.93039,5.83955,44.24777s48.10548,9.99066,56.05649,13.90937,18.5235,14.83626,7.25944,18.90951-25.58447,3.88846-50.77172-11.87738-25.47153-21.16454-25.15312-13.28455,1.08433,21.01661,3.15633,25.78109,15.31392,16.55567,40.34285,16.65041,54.94692.61128,69.14607,7.798,7.98045-19.23519,7.98045-19.23519Z"/><path class="cls-45" d="M351.55044,512.67305l19.48371,28.77461L329.28247,557.472l-35.33841,9.57325L247.61871,546.7594s-12.45945-20.33177-.70921-19.63435,26.8334,6.36977,39.82489,12.64362,48.79386-7.04116,32.21835-17.11561-26.606-5.10656-42.582-4.90586-32.9196-2.64958-38.59017-19.69082c0,0,12.54424,12.27932,27.69037,12.81548S333.20256,503.19668,351.55044,512.67305Z"/><path class="cls-46" d="M371.704,539.61146s15.03815,15.46291,19.752,18.98582-18.16174,43.87636-33.468,51.13133-31.07855,11.15643-44.80688,4.05273-46.43306-37.82851-39.86963-35.3225,34.578,7.3132,55.7832,5.60876,40.35867-24.87653,26.216-26.01829-24.22792,6.78591-40.61822,12.94855-50.33271,3.42241-67.07381-24.23847c0,0,34.06659,15.93,53.4467,13.39165S349.65543,534.13038,371.704,539.61146Z"/><path class="cls-47" d="M419.71157,578.24444s-10.3727-6.12895-28.25556-19.64716c0,0-11.66366,29.14456-33.51975,41.81589a105.83141,105.83141,0,0,1-44.75509,13.36818s33.99951,22.15446,51.11312,8.89931,16.6463-27.79568,18.35779-19.95395.66683,19.32949,9.96873,11.35532S409.65887,580.35431,419.71157,578.24444Z"/><path class="cls-48" d="M267.89484,368.83075s23.72378,57.40324,30.5136,65.2642,12.34171-25.22924,12.48845-25.664-3.7098-31.90643-3.99779-32.48791-9.56853-17.41888-19.62044-14.46792c0,0-3.3904-1.28969,2.76419,5.7273s10.27362,30.13837,3.23229,23.72429-2.601-6.51335-6.51714-14.56657S268.46454,363.98665,267.89484,368.83075Z"/><path class="cls-49" d="M298.40844,434.09494s21.80465,38.80855,30.55259,48.99145.08654-24.55717,4.46136-30.3445,14.535-52.67335,14.535-52.67335-9.84908-27.63479-10.10882-28.013-7.43329-6.5285-12.36488-6.98245-8.178-1.45291-9.48769-.44218,17.38476,14.77867,9.83809,30.5367-10.94767-5.72925-11.28746-15.62618-11.30473-18.73132-16.7303-19.013a41.817,41.817,0,0,0-10.53765.94678s16.82446,1.80485,17.80027,20.00375S309.76926,422.67525,298.40844,434.09494Z"/><path class="cls-50" d="M356.01226,518.38237s-23.1619-29.51341-29.39575-38.59108,4.28994-26.84912,10.02-46.94125,11.094-41.86545,2.28553-53.07128-13.43839-14.7057-13.43839-14.7057,20.45733.36763,30.16437,19.5282,5.41854,40.47364-6.12825,55.02673-7.14684,32.794,5.92272,29.94149,23.27682-31.51409,13.23-60.57159-15.93892-36.42172-15.93892-36.42172l12.74586,5.99723,26.043,19.68671s1.533,54.99769-1.32339,58.2951S356.01226,518.38237,356.01226,518.38237Z"/><path class="cls-51" d="M353.44033,515.52872s13.94494,26.54755,28.478,35.71467S423.16763,486.57,423.16763,486.57s23.34784-27.277,9.51865-53.737-23.91837-28.99392-23.91837-28.99392,8.23253,10.04288,7.23321,36.38877-38.12256,81.95177-39.20039,60.038,21.29735-37.55763,25.06715-52.16918,4.56313-40.20371-3.00317-49.92485-33.38526-19.59843-33.38526-19.59843,23.46558,18.284,24.50143,43.62194-21.06427,52.64864-32.3933,71.0041S353.44033,515.52872,353.44033,515.52872Z"/><path class="cls-52" d="M381.91834,551.2434s14.51934,12.7945,19.4117,15.94712,10.87782-14.14934,20.55972-19.017,25.2632-22.46417,25.2632-22.46417a15.109,15.109,0,0,1,3.41425-6.01327c2.39742-2.3143,9.76053-5.513,13.27507-9.71118s7.15852-25.81655-.0531-44.90964-15.28838-24.28912-15.28838-24.28912,6.09888,14.06851,3.92677,28.2508-7.52312,24.87023-13.47642,26.00847-1.53649-8.07323-.06906-12.42059,10.25394-40.99471-4.24893-58.14207-25.86526-20.64368-25.86526-20.64368,25.10251,15.15612,21.04984,50.83472S388.76033,545.32031,381.91834,551.2434Z"/><path class="cls-53" d="M419.71157,578.24444s-12.59734-9.68262-.27151-11.55125,22.22511-6.6629,33.16492-21.85671,10.19351-18.48628,3.25609-17.45536-9.84317.19854-8.70811-1.67176S408.89867,545.62869,401.33,567.19052C401.33,567.19052,413.53736,579.1937,419.71157,578.24444Z"/><path class="cls-54" d="M267.89484,368.83071c1.02114,3.64091,2.22988,7.2262,3.52478,10.777l.96822,2.66438,1.02686,2.64249c.6764,1.76463,1.368,3.52305,2.10821,5.26224,1.41631,3.50428,2.96509,6.952,4.50151,10.404.76223,1.72854,1.60473,3.421,2.403,5.133.82276,1.70063,1.58538,3.42972,2.45863,5.10576a425.49932,425.49932,0,0,0,22.32211,39.41938c2.06587,3.16108,4.09945,6.34251,6.19077,9.48526l6.44556,9.313c1.05393,1.566,2.19625,3.06994,3.31207,4.59217l3.35866,4.55838q3.34223,4.56315,6.764,9.10087c9.12118,12.08212,17.88763,24.44495,26.53582,36.85,4.33619,6.19375,8.66149,12.38394,13.32645,18.24605a91.6041,91.6041,0,0,0,15.674,15.80809l2.23061,1.66874c.74989.54808,1.46616,1.13763,2.26342,1.62613l4.6775,3.06c3.23449,1.881,6.42092,3.82972,9.77455,5.53381,1.66491.86889,3.30293,1.77847,4.98884,2.614l5.06379,2.49622,10.19482,5.0041c13.6035,6.7293,26.91366,14.0355,40.00416,21.71465,13.07918,7.72921,25.90683,15.76719,38.411,24.563l-3.08383,4.216c-12.11558-8.78619-24.82384-17.01488-37.67461-24.85732-12.88965-7.81268-26.00946-15.26247-39.425-22.1405l-10.09945-5.1389-5.07445-2.59314c-1.68983-.868-3.34629-1.818-5.02055-2.723-3.36606-1.77251-6.60988-3.81643-9.88218-5.78583l-4.7701-3.21913c-.80913-.51333-1.54921-1.13659-2.317-1.715l-2.28582-1.76242a94.72888,94.72888,0,0,1-15.95756-16.55109c-4.6671-6.04238-8.9199-12.32443-13.16773-18.58035-8.47225-12.5333-17.0295-24.97645-25.9614-37.16914q-3.33894-4.573-6.63813-9.2053l-3.30435-4.62256c-1.09748-1.5434-2.22119-3.06814-3.25659-4.65507l-6.33128-9.43508c-2.05247-3.18279-4.04657-6.40339-6.072-9.6024a426.48822,426.48822,0,0,1-21.8035-39.82866c-.85011-1.69079-1.58967-3.4347-2.389-5.14946-.77493-1.72628-1.59376-3.43246-2.33231-5.1748-1.489-3.47918-2.98959-6.95255-4.357-10.4813-.71568-1.75117-1.38277-3.52142-2.03434-5.29739l-.98951-2.659-.9306-2.6803C270.02121,376.09083,268.8635,372.48616,267.89484,368.83071Z"/></g><g class="cls-41"><path class="cls-55" d="M880.2055,453.365a141.41944,141.41944,0,0,0,5.74531,15.40307c2.86214,6.01614-25.35223,23.51845-25.35223,23.51845l-10.36527-.92431Z"/><path class="cls-56" d="M860.64543,484.77572s3.099,3.1487,10.924-3.44343,14.38136-12.56423,14.38136-12.56423,7.07231,8.84632-.15984,14.33357-19.22635,11.61479-16.76952,16.08207,9.98579,5.86719,16.73978-3.58491,8.58289-10.06161,8.58289-10.06161l1.46859,5.82229A24.531,24.531,0,0,1,880.77536,516.306c-17.39741,7.79636-43.71337,8.20368-43.71337,8.20368l.14355-13.77586Z"/><path class="cls-57" d="M838.83952,518.27616s12.78818,1.25383,30.311-4.01053,25.98948-14.63449,26.66224-22.90617c0,0,9.466,21.38211-6.9432,31.03236s-34.85591,4.4106-40.75988,6.74642-14.11415,9.48594-6.35664,12.9975,17.95791,4.17523,36.8718-5.59969,19.45637-13.585,18.73324-8.01844-2.09593,14.83335-3.87038,18.09475-11.93894,10.8825-29.75261,9.5608-39.13241-2.61577-49.68779,1.68927-4.46579-14.07393-4.46579-14.07393Z"/><path class="cls-58" d="M811.621,550.65756l-15.6757,19.31013,28.69584,13.67247,24.53944,8.745,34.23816-11.8051s10.146-13.71684,1.74193-13.87462-19.493,3.025-29.13158,6.75012-34.27236-7.69728-21.84425-13.91683,19.25159-2.14245,30.6056-1.11373,23.58876-.051,28.69721-11.81266c0,0-9.69886,8.00573-20.50889,7.54524S825.27247,544.9602,811.621,550.65756Z"/><path class="cls-59" d="M795.58447,568.62929s-11.67387,10.12341-15.24973,12.35837,10.15676,32.101,20.58969,38.09157,21.40884,9.63057,31.624,5.35828,35.42032-24.23083,30.59262-22.81913-25.06261,3.26383-40.04235.87932-27.14688-19.86833-17.01264-19.89269,16.81015,6.15325,28.08324,11.42991,35.59527,5.21822,49.24946-13.45484c0,0-25.24175,9.39858-38.87043,6.52435S811.61709,565.96856,795.58447,568.62929Z"/><path class="cls-60" d="M758.9932,593.34284a245.1351,245.1351,0,0,0,21.34154-12.35518s6.46186,21.30064,21.21359,31.493a75.10843,75.10843,0,0,0,31.00011,11.95684s-25.58628,13.81327-36.927,3.47032-10.09194-20.62123-11.80381-15.15912-1.69256,13.66093-7.8082,7.49385S766.01258,595.39583,758.9932,593.34284Z"/><path class="cls-61" d="M880.2055,453.365s-20.4966,39.36267-25.82284,44.55661-7.191-18.56365-7.268-18.87987,4.65018-22.40479,4.89172-22.80088,7.90558-11.813,14.87139-9.164c0,0,2.49349-.72581-2.32761,3.90529s-9.20881,20.78763-3.79481,16.633,2.261-4.47139,5.55481-9.961S880.10543,449.90059,880.2055,453.365Z"/><path class="cls-62" d="M854.38266,497.92161s-17.95935,26.29195-24.82509,33.02269,1.486-17.40736-1.26191-21.75133-7.022-38.13376-7.022-38.13376,8.749-19.037,8.95762-19.29064,5.70009-4.214,9.23745-4.262,5.91007-.57582,6.77821.21311-13.30033,9.50831-8.924,21.09407,8.15015-3.45259,9.0156-10.44723,9.22357-12.64675,13.10154-12.54533a29.83112,29.83112,0,0,1,7.43771,1.25566s-12.08408.34544-13.92524,13.188S847.01927,489.19859,854.38266,497.92161Z"/><path class="cls-63" d="M808.08673,554.45591s18.33924-19.62959,23.34659-25.71661-1.36022-19.2648-4.17091-33.82115-5.25493-30.28375,1.71838-37.736,10.48794-9.67558,10.48794-9.67558-14.57824-.87464-22.69213,12.165a36.25427,36.25427,0,0,0,.89243,39.335c7.29825,10.95383,3.01822,23.63617-6.1008,20.88953s-14.57511-23.62422-5.59578-43.65846,13.63556-24.926,13.63556-24.926l-9.44643,3.54271-19.76983,12.506s-4.5566,38.88931-2.73212,41.38453S808.08673,554.45591,808.08673,554.45591Z"/><path class="cls-64" d="M810.09645,552.57638s-11.59461,18.03926-22.51237,23.72916-25.2726-48.12-25.2726-48.12-14.89266-20.62551-3.38592-38.60919,18.84472-19.21947,18.84472-19.21947-6.49021,6.66012-7.4395,25.38571,21.9591,60.1909,24.10694,44.7214-12.78589-27.79717-14.54724-38.36089-.713-28.74375,5.28292-35.21284,24.98817-12.036,24.98817-12.036-17.84764,11.655-20.1814,29.55333,11.669,38.47855,18.57273,52.11487S810.09645,552.57638,810.09645,552.57638Z"/><path class="cls-65" d="M787.58408,576.30554s-11.13659,8.26122-14.8161,10.22387-6.84772-10.6306-13.4295-14.61732-16.55871-17.32117-16.55871-17.32117a10.59685,10.59685,0,0,0-2.05024-4.45078c-1.55989-1.77307-6.597-4.44844-8.833-7.61849s-3.46624-18.69224,2.86794-31.82248,12.40812-16.36426,12.40812-16.36426-5.22584,9.63129-4.57417,19.80217,3.78529,18.04185,7.94924,19.17882,1.602-5.63587.83187-8.79808-4.71208-29.62008,6.6871-40.96689,19.70368-13.194,19.70368-13.194-18.81517,9.34754-18.18018,34.85623S783.08938,571.72845,787.58408,576.30554Z"/><path class="cls-66" d="M758.9932,593.34284s9.573-6.16262.92112-8.17078-15.39294-5.95495-22.21894-17.32915-6.08754-13.666-1.21664-12.5505,6.99075.68689,6.301-.70149,25.962,16.23862,29.98821,31.93849C772.768,586.52941,763.32624,594.35814,758.9932,593.34284Z"/><path class="cls-67" d="M880.2055,453.365c-.956,2.52349-2.04191,4.99715-3.187,7.44157l-.85678,1.8344-.89712,1.81564c-.59245,1.213-1.19534,2.42072-1.83158,3.61213-1.22852,2.40473-2.54772,4.762-3.85841,7.12307-.65125,1.18264-1.35733,2.33529-2.03318,3.50418-.69256,1.1595-1.34411,2.34251-2.071,3.48179a306.72774,306.72774,0,0,1-18.366,26.6961c-1.669,2.12548-3.31639,4.26718-5.00239,6.37826l-5.17281,6.242c-.84854,1.0513-1.75607,2.05366-2.64588,3.07048l-2.6769,3.04395q-2.66551,3.04824-5.386,6.074c-7.251,8.05593-14.26727,16.33046-21.20208,24.64149-3.47546,4.14862-6.94294,8.29532-10.63141,12.19068a66.33509,66.33509,0,0,1-12.148,10.33274l-1.69221,1.05878c-.56807.34679-1.11485.72483-1.71287,1.02677l-3.52081,1.90894c-2.41983,1.1535-4.80973,2.35766-7.30318,3.37918-1.23932.52336-2.46206,1.077-3.71421,1.57556l-3.76011,1.488-7.56881,2.98048c-10.10276,4.01391-20.03316,8.45291-29.83078,13.1684-9.79272,4.75159-19.42594,9.73595-28.87677,15.27529l1.92841,3.15881c9.17374-5.5541,18.734-10.68023,28.37139-15.52473,9.66314-4.82126,19.46716-9.37259,29.44555-13.50232l7.50945-3.0813,3.77381-1.55606c1.257-.52135,2.49541-1.10268,3.74364-1.65111,2.5066-1.06932,4.94333-2.33775,7.39564-3.5518l3.59672-2.01656c.608-.31888,1.17387-.71949,1.75662-1.08679l1.73739-1.12211a68.58836,68.58836,0,0,0,12.39659-10.84354c3.70136-4.023,7.123-8.23881,10.53955-12.43639,6.81771-8.41167,13.69022-16.75473,20.8135-24.89951q2.6638-3.05544,5.303-6.155l2.6423-3.09245c.8781-1.03284,1.7737-2.051,2.61037-3.11813l5.0992-6.3349c1.66087-2.14161,3.28261-4.31325,4.9253-6.46786a307.33089,307.33089,0,0,0,18.02281-27.01492c.71139-1.151,1.34748-2.3458,2.02427-3.51663.66014-1.18034,1.35025-2.344,1.98551-3.53773,1.27868-2.38291,2.56519-4.76107,3.76048-7.18586.61955-1.20126,1.20574-2.41874,1.78124-3.64114l.87159-1.82942.831-1.84777C878.2351,458.3919,879.286,455.90167,880.2055,453.365Z"/></g></g><g id="notepad"><rect class="cls-68" x="327.93021" y="112.80304" width="468.07169" height="610.66449" rx="23.53476" ry="23.53476"/><rect class="cls-69" x="350.00191" y="139.80304" width="423.92831" height="564" rx="12.55056" ry="12.55056"/><rect class="cls-70" x="364.06226" y="147.80304" width="395.8076" height="541" rx="3.05316" ry="3.05316"/><rect class="cls-71" x="470.59688" y="108.91879" width="182.33333" height="52.60184" rx="7.0185" ry="7.0185"/><rect class="cls-72" x="610.30139" y="233.80304" width="124.37882" height="37.75"/><rect class="cls-72" x="610.30139" y="279.05304" width="124.37882" height="7.98686"/><rect class="cls-72" x="499.77665" y="341.81618" width="124.37882" height="7.98686"/><rect class="cls-72" x="543.93021" y="600.31618" width="80.22526" height="7.98686"/><rect class="cls-72" x="655.45495" y="600.31618" width="80.22526" height="7.98686"/><rect class="cls-72" x="655.45495" y="615.56618" width="80.22526" height="7.98686"/><rect class="cls-72" x="388.25191" y="374.25638" width="347.42831" height="8.16297"/><rect class="cls-72" x="388.25191" y="391.00638" width="347.42831" height="8.16297"/><rect class="cls-72" x="388.25191" y="407.75638" width="347.42831" height="8.16297"/><rect class="cls-72" x="388.25191" y="424.50638" width="347.42831" height="8.16297"/><rect class="cls-72" x="388.25191" y="441.25638" width="347.42831" height="8.16297"/><rect class="cls-72" x="388.25191" y="458.00638" width="347.42831" height="8.16297"/><rect class="cls-72" x="388.25191" y="474.75638" width="347.42831" height="8.16297"/><rect class="cls-72" x="388.25191" y="491.50638" width="347.42831" height="8.16297"/><rect class="cls-72" x="388.25191" y="508.25638" width="347.42831" height="8.16297"/><rect class="cls-72" x="388.25191" y="525.00638" width="347.42831" height="8.16297"/><rect class="cls-72" x="388.25191" y="541.75638" width="347.42831" height="8.16297"/></g><g id="person_right"><path class="cls-73" d="M78.0804,761.348a8.76524,8.76524,0,0,0,6.59981-4.46167c1.027-1.8883,1.04167-6.5,3.66667-9.15822,11.58851-11.73515,132.2632-7.60863,197.2632-6.60863s220,18,174,33.5-245.16667,21-325.5,18.66667-90-12.29167-85.80819-21.239c3.51167-7.49558,14.36868-8.72444,24.83062-10.13517C74.6835,761.7029,76.41943,761.563,78.0804,761.348Z"/><path class="cls-74" d="M163.323,749.41646s-.91832,11.01986,5.50993,12.8565,10.10154-5.50993,10.10154-5.50993l.91832-7.34657s-.91832-5.50993-1.83664-16.52979a137.37037,137.37037,0,0,1,0-21.1214H159.64974S166.078,740.23324,163.323,749.41646Z"/><path class="cls-74" d="M313.92776,755.84471s-26.63133-33.9779-29.38629-41.32447H266.175s8.26489,14.69315,15.61147,22.03972,22.958,21.1214,22.958,21.1214Z"/><path class="cls-75" d="M180.92419,715.97425h-22.5754s-27.32007-155.88508-27.167-191.24046,102.852-13.62177,102.852-13.62177l5.50993,7.34657s30.76377,171.57308,48.8241,197.51566c0,0-23.79983,1.9897-26.01911.84179,0,0-36.94845-50.41582-48.28841-90.68425-11.24944-39.947-27.09049-62.44587-27.09049-62.44587S183.71742,712.14791,180.92419,715.97425Z"/><path class="cls-76" d="M130.26345,377.49623s-14.69315-23.87636-6.42825-39.48783,24.79468-8.26489,23.87636-33.9779,8.26489-41.32447,14.69314-46.8344,19.28475-1.83664,21.1214-1.83664,12.8565-2.755,18.36643,5.50993,6.24374,6.57417,9.18322,10.10154c4.59161,5.50993.91832,22.958.91832,25.713s2.755,34.89622-6.42825,37.65118Z"/><path class="cls-77" d="M211.99409,296.68391c0-.081.00376-.17712.00981-.28288a20.90266,20.90266,0,0,1-2.41833-3.32494c-2.41754-4.00264-19.2917,27.71931-19.2917,27.71931v16.08817l5.78188,2.89094,9.49009-5.43942C214.74905,331.58013,211.99409,299.43888,211.99409,296.68391Z"/><path class="cls-78" d="M163.30389,748.99556s5.1273,5.01251,10.29285,3.8646,5.86983-3.2911,6.25607-3.68763c0,0,1.33723,11.77078.63892,14.93707-.58642,2.659-12.25336,2.93074-16.47806,1.02341a2.213,2.213,0,0,1-1.26333-1.91479C162.58059,760.05859,162.20407,751.0381,163.30389,748.99556Z"/><path class="cls-78" d="M321.80523,764.575a.37689.37689,0,0,0,.34007-.53922c-1.05054-2.18794-5.31093-10.392-10.389-10.98205-5.86381-.68138-8.56138-1.284-15.96534-9.26194s-16.32775-12.51306-17.76321-11.47948-4.04693,4.89818-1.10065,14.23445,5.0412,16.8072,4.69683,18.6821h4.32376l-.04783-18.10815a5.59556,5.59556,0,0,1,5.56732,2.908c1.42033,2.585,5.66611,9.47308,7.7593,12.85031a4.01,4.01,0,0,0,3.45475,1.8972Z"/><path class="cls-79" d="M144.61222,536.825c7.0022-9.872,15.15231-15.38189,13.54524-21.00661-.85269-2.98438-6.26184-6.16229-11.78662-7.81986-9.11719,2.98847-15.15208,8.19147-15.18907,16.73521-.153,35.35538,27.16705,191.24046,27.16705,191.24046h9.22144s-13.27738-61.298-16.64458-79.35831S137.61,546.697,144.61222,536.825Z"/><path class="cls-74" d="M234.03379,452.7986s21.1214,35.81454,22.03972,38.56951,0,6.42825,2.755,9.18322,1.83664,3.67329,2.755,4.59161,2.755-1.83664.91832-6.42825c0,0,7.34657.91832,7.34657,7.34657s2.755,8.26489,3.67329,8.26489,2.755-11.01986.91832-16.52979c-.64935-1.94805-5.50993-7.34657-10.10154-9.18322S249.64525,448.207,249.64525,448.207Z"/><path class="cls-79" d="M262.34874,716.816c.97454.50411,6.1109.403,11.56573.13116l.00011-.00006S253.20375,684.56,248.84172,676.75427s-23.685-53.76009-27.51136-73.65708-31.95-77.17724-31.95-77.17724l-2.41059,37.766s15.841,22.49888,27.09049,62.44587C225.40025,666.40022,262.34874,716.816,262.34874,716.816Z"/><path class="cls-75" d="M252.2472,448.207s-6.65783-10.63726-7.57615-21.198-7.99709-70.175-12.5887-77.40682-24.48854-20.31786-44.50031-20.777c0,0-23.87636.53567-34.43706,5.20378s-21.351,10.5607-22.42237,34.43706-2.06622,42.54894,3.67329,65.39218c0,0,2.86084.50949,7.46573.91563l-.46353,1.38017-27.20528,82.99331s66.126,27.54965,129.14239-2.755l-6.912-61.01082C239.63844,454.70631,248.57655,452.49974,252.2472,448.207Z"/><path class="cls-69" d="M174.185,328.71434l1.07623.11085s2.755,6.42825,11.93818,6.42825,11.01986-4.39072,11.01986-4.39072l1.83664,3.4724s15.61147,36.73286,15.61147,44.07943,1.83664,96.42376,1.83664,96.42376-31.22293,3.67329-38.56951,2.755c0,0,12.8565-82.64894,12.8565-92.75048,0-8.89615-15.253-44.6075-18.99255-53.23306C172.42414,330.74636,173.24394,328.71434,174.185,328.71434Z"/><polygon class="cls-80" points="199.247 404.342 246.848 421.378 255.082 422.541 248.793 417.761 200.607 400.71 199.247 404.342"/><path class="cls-74" d="M172.33406,413.54035s37.82337-.22958,43.3333-2.98455,9.18322-7.34657,16.52979-4.59161,10.10154,7.34657,11.01986,9.18322-3.67329.91832-8.26489.91832-6.42825,2.755-11.01986,3.67329-2.755-.91832-9.18322.91832-22.03972,9.48351-43.16111,11.32016l1.28059-4.8444a21.41081,21.41081,0,0,0,.24585-9.91069Z"/><path class="cls-74" d="M172.50624,295.76561v10.10154a3.26224,3.26224,0,0,0,1.83664,2.755v20.83856a7.75083,7.75083,0,0,0,5.43563,7.3799,28.16971,28.16971,0,0,0,11.09416,1.16782c10.10154-.91832,7.34657-6.42825,7.34657-6.42825V319.642s8.26489.91832,10.10154-7.34657a100.04057,100.04057,0,0,0,1.83664-18.36643,16.77046,16.77046,0,0,1-2.755-11.93818s-1.83664-8.26489-6.42825-9.18322C200.97421,272.80757,191.791,296.68393,172.50624,295.76561Z"/><path class="cls-81" d="M198.21924,327.10333s-13.88961.86093-19.39954-12.62692c0,0,12.45474,7.46136,19.39954,5.8543Z"/><path class="cls-79" d="M129.72907,471.75195s22.00015-7.24475,35.31581-36.74583a147.3281,147.3281,0,0,1-23.18325-.23227Z"/><path class="cls-79" d="M170.74612,413.42626s-11.78513-.4216-15.91757-3.71225c0,0,6.81088-25.86606,6.81088-29.53934S171.66445,397.20258,170.74612,413.42626Z"/></g><g id="person_left"><ellipse class="cls-73" cx="903.72886" cy="765.22881" rx="147.86949" ry="24.2409"/><path class="cls-74" d="M726.0007,366.85383s9.66667-4,14.25-3.83333,8.25,9.05305,11.41667,11.77653a15.69611,15.69611,0,0,1,2.50094,1.97477c1.51906,3.59652-3.33427,10.332-3.33427,10.332l-15.41667-2.83333Z"/><path class="cls-82" d="M730.61173,257.76912a47.25,47.25,0,1,0-24.00223,66.04168l32.9394,61.78315a5,5,0,0,0,8.82422-4.70459l-32.9394-61.78315A47.25372,47.25372,0,0,0,730.61173,257.76912Zm-23.69937,55.98182a38.25,38.25,0,1,1,15.75758-51.74769A38.25,38.25,0,0,1,706.91235,313.75095Z"/><path class="cls-74" d="M738.91737,385.02049c-11.75,3.58333-14.41667-11.58333-15.08333-13.5s-.66667-6.25,5.33333-7.25,10.58333,6.16667,10.58333,10.52653a8.93885,8.93885,0,0,1-2.75,6.64014Z"/><path class="cls-83" d="M858.26634,523.0094s-23.697,1.05581-28.62409-2.46355c0,0,11.96581-137.02023,19.47377-161.4211s26.62979-38.06769,35.25221-42.5842,17.53812,8.8766,17.53812,8.8766Z"/><path class="cls-84" d="M839.00506,768.38666l45.37517-.31079s3.17967-.39746,3.33865-3.17967.55644-18.601.55644-18.601l-17.88562-3.02068s-.87441,6.12086-10.01595,11.76477c-8.80318,5.435-21.66073,3.12983-22.38752,12.25109A1.01907,1.01907,0,0,0,839.00506,768.38666Z"/><path class="cls-84" d="M963.47443,767.83739s-.87441-4.849,1.82831-5.40543,9.89671-2.46424,10.85061-8.128.775-24.74178.775-24.74178l11.80451-7.09463s6.91577,4.65026,10.01595,8.5851,5.42531,7.45234,3.33865,10.96985-8.64472,10.07557-9.51913,13.89117-4.92848,11.84426-10.41341,11.92375S963.47443,767.83739,963.47443,767.83739Z"/><path class="cls-83" d="M756.5705,393.57824s60.22437,33.61086,68.987,34.64624,21.383-13.64242,24.8176-18.9998,42.211-40.878,35.35122-58.01761-22.10741-16.44736-25.11681-11.84184-31.08553,55.62913-33.43333,56.19219-73.62244-21.301-73.62244-21.301-1.2039,11.18009-5.77462,13.28149Z"/><path class="cls-68" d="M890.66007,748.16321s-17.64715,3.21941-23.8475-4.88874c-5.71122-7.46851-17.9133-217.47522-19.811-250.56235-.01545-.26929.02163-.56968.0243-.8172a8.83166,8.83166,0,0,1,.6991-3.66457l85.78114-9.58361s4.849,39.26888,3.17967,48.5694,10.25442,40.06379,22.65512,58.18789,29.17344,75.95428,35.53277,137.06349c0,0-4.88874,9.59862-19.55495,10.19481L910.93044,615.21341S899.48364,721.81172,890.66007,748.16321Z"/><path class="cls-71" d="M847.461,488.25984a41.0961,41.0961,0,0,0-.26119,8.78579c.70576,12.203,2.11054,36.10943,3.88926,64.41973l56.48637,82.85946c2.057-17.02756,3.355-29.11141,3.355-29.11141C901.854,604.246,869.1915,521.21911,856.052,487.30006Z"/><path class="cls-81" d="M880.91448,306.78561a30.0821,30.0821,0,0,0,18.72815-10.89019s-10.13312,2.56928-19.39493,1.7914A54.28467,54.28467,0,0,1,880.91448,306.78561Z"/><path class="cls-82" d="M1042.85858,550.73517l-3.16229-37.71094c-.626-7.46469-7.64722-12.85146-15.61755-12.03839L993.68983,504.086l-1.01616-8.33971a5.58792,5.58792,0,0,0-6.22275-4.87106L967.17464,493.224a5.58792,5.58792,0,0,0-4.87106,6.22275l.94369,7.74493-26.41964,2.6952a13.0974,13.0974,0,0,0-11.83378,13.96843l2.96041,35.3029a13.09734,13.09734,0,0,0,13.99487,11.80253l87.51493-5.75426C1037.45848,564.68085,1043.48455,558.19992,1042.85858,550.73517Zm-77.3818-50.21661a4.5395,4.5395,0,0,1,3.95711-5.05525l15.36159-1.87178a4.53959,4.53959,0,0,1,5.05525,3.95717l.83388,6.84391L966.25251,506.885Z"/><path class="cls-69" d="M847.00153,496.29813s22.0575,1.95846,38.48115-.15315S914.3414,317.90919,914.3414,317.90919s-28.46767,6.88229-34.02043,3.12832c0,0-22.48512,14.8937-27.80326,53.68482S847.00153,496.29813,847.00153,496.29813Z"/><path class="cls-74" d="M979.42048,472.91724s1.486,6.33484,1.9552,7.899,2.9719,2.03341,2.18982,16.11083c0,0-1.877,3.44115-8.05541,2.89369,0,0-7.156.31283-6.68678-8.48556s-.176-11.49656-.70387-12.9043Z"/><path class="cls-74" d="M880.24769,300.50231c1.9078,9.30052-.79595,22.59267-.79595,22.59267s22.97309,4.5509,33.3865-8.72421c0,0-7.86967-12.55968-8.26713-19.79342,0,0,4.21306-2.78221,4.3323-16.37528s2.90145-26.6297-10.77112-26.78869-26.35148,1.88793-27.62335,5.86251-2.4245,22.834-1.4706,29.82924,1.1725,11.54616,4.63039,12.26159S880.24769,300.50231,880.24769,300.50231Z"/><path class="cls-85" d="M883.4462,260.52511a23.16286,23.16286,0,0,0-9.688,2.35494c-5.51473,2.5338-10.37366,2.504-11.86413.74523s-5.73334-12.92733,2.61329-19.04819,33.86345-5.64391,41.01769-4.45153c4.77008.795,8.33017,2.63386,9.221,5.40543.35771,1.11288,2.7626,1.30062,3.45789,2.58348,2.822,5.2067-.159,30.68378-8.62484,38.23549,0,0-1.74882,2.06678-4.01433-.9539s.9539-13.51358-1.96742-14.229-4.29255,3.51751-7.57158,2.56361C894.89669,273.4022,892.21016,257.93169,883.4462,260.52511Z"/><path class="cls-82" d="M866.94741,526.56785s68.51012,6.25663,78.2079-18.14423l-6.64767-98.62016s23.697,50.75692,24.32266,68.43191c0,0,15.798,2.50265,19.552-3.44115,0,0-1.877-43.40538-17.8314-78.12969s-42.31047-83.36962-50.36588-83.99528-34.80251,27.6856-40.43348,44.46119c-1.19612,3.56343-7.2301,20.608-8.05541,33.6685C862.63607,439.22361,866.94741,526.56785,866.94741,526.56785Z"/><path class="cls-83" d="M893.82225,349.14689l18.82122-36.30234c-9.47081,2.36749-33.57851,28.45626-38.892,44.28591-1.19609,3.5634-7.23009,20.60793-8.05539,33.6685-.652,10.31726-.96851,22.40335-1.06423,35.03288.03024-.09182,17.14368-52.17965,21.1269-62.2305a3.94656,3.94656,0,0,0,.07532-2.71919l-3.04959-9.03072,8.65942-1.05363A3.10077,3.10077,0,0,0,893.82225,349.14689Z"/><path class="cls-83" d="M933.98338,560.4002l-3.12405-37.25463a13.69815,13.69815,0,0,1,7.91554-13.45734l-1.94723.19864a13.0974,13.0974,0,0,0-11.83378,13.96843l2.96041,35.3029a13.0692,13.0692,0,0,0,12.80918,11.822A13.57446,13.57446,0,0,1,933.98338,560.4002Z"/></g></svg>