<svg width="100" height="101" viewBox="0 0 100 101" fill="none" xmlns="http://www.w3.org/2000/svg">
<path d="M41.2625 0.75C42.1 0.625 42.925 0.5 43.7625 0.375C45.425 0.25 47.1 0.125 48.7625 0C49.6 0 50.425 0 51.2625 0C52.925 0.125 54.6 0.2375 56.2625 0.3625C57.1 0.4875 57.925 0.6125 58.7625 0.7375C59.6 0.9 60.425 1.075 61.2625 1.2375C62.1 1.45 62.925 1.6625 63.7625 1.875C65.425 2.45 67.1 3.025 68.7625 3.6C69.5875 3.95 70.425 4.3125 71.25 4.6625C71.475 4.8125 71.7125 4.9625 71.9875 5.0125C72.575 5.3125 73.1625 5.625 73.7375 5.925C74.575 6.4125 75.4125 6.8875 76.25 7.375C76.325 7.425 76.4 7.475 76.475 7.5125C77.225 8.0125 77.9875 8.5125 78.7375 9.0125C79.2 9.35 79.65 9.675 80.1125 10.0125C80.4875 10.3 80.8625 10.6 81.2375 10.8875C82.625 12.075 84.0125 13.2625 85.3 14.55C87.025 16.2625 88.575 18.125 90.1 20.0125C90.475 20.525 90.85 21.05 91.2125 21.5625C91.3875 21.9125 91.6 22.225 91.85 22.5125C92.8625 24.15 93.825 25.8125 94.75 27.5125C95.5125 29.175 96.275 30.825 96.9375 32.5375C97.225 33.3625 97.5 34.2 97.7875 35.025C98.225 36.6875 98.65 38.3625 99.0875 40.025C99.225 40.8625 99.3625 41.6875 99.5 42.525C99.6 43.3625 99.7 44.1875 99.7875 45.025C99.875 45.8625 99.8125 46.7 99.975 47.525C99.9875 48.3625 99.9875 49.1875 100 50.025C100 50.8625 99.9875 51.6875 99.9875 52.525C99.925 53.3625 99.8625 54.1875 99.8 55.025C99.7 55.8625 99.6 56.7 99.5125 57.525C99.375 58.3625 99.2375 59.1875 99.1 60.025C98.6625 61.6875 98.2375 63.35 97.8 65.0125C97.5125 65.85 97.225 66.6875 96.95 67.525C96.2125 69.2 95.4875 70.8625 94.75 72.5375C93.825 74.225 92.85 75.8875 91.8375 77.525C91.5875 77.7875 91.3875 78.0875 91.2375 78.4125C90.85 78.95 90.4625 79.4875 90.075 80.0125C89.9875 80.1 89.9 80.1875 89.825 80.2875C88.15 82.475 86.3 84.5 84.3125 86.4C82.5625 88.075 80.65 89.5375 78.725 91C77.9625 91.5 77.2 92.0125 76.45 92.5125C76.35 92.5125 76.275 92.55 76.2375 92.6375C75.4 93.1125 74.55 93.6 73.7125 94.075C73.125 94.3875 72.5375 94.6875 71.95 95C71.7 95.1125 71.4625 95.225 71.2125 95.3375C70.3375 95.725 69.45 96.1125 68.575 96.4875C66.9625 97.0375 65.35 97.5875 63.7375 98.1375C62.9 98.35 62.075 98.5625 61.2375 98.775C60.4 98.9375 59.575 99.1125 58.7375 99.275C57.9 99.4 57.0625 99.525 56.2375 99.65C54.575 99.775 52.9 99.9 51.2375 100.025C50.4 100.025 49.575 100.025 48.7375 100.025C47.075 99.9 45.4125 99.775 43.7375 99.65C42.9 99.525 42.0625 99.4 41.2375 99.275C40.4 99.1125 39.575 98.9375 38.7375 98.775C37.9 98.5625 37.075 98.35 36.2375 98.1375C34.575 97.5625 32.9 96.975 31.2375 96.4C30.4 96.025 29.575 95.6625 28.7375 95.2875C28.5375 95.2 28.3375 95.1 28.1375 95.0125C27.5 94.6875 26.875 94.3625 26.2375 94.0375C25.4125 93.55 24.575 93.0625 23.75 92.575C23.7125 92.5625 23.675 92.5375 23.6375 92.525C22.8375 92 22.05 91.4625 21.25 90.9375C20.825 90.6375 20.4125 90.3375 19.9875 90.0375C19.575 89.7125 19.15 89.3875 18.7375 89.0625C17.6 88.05 16.45 87.0625 15.3375 86.0375C13.375 84.2 11.6625 82.1375 9.975 80.05C9.5625 79.4875 9.1625 78.925 8.75 78.375C8.625 78.0625 8.4125 77.8125 8.2 77.55C7.175 75.9125 6.2 74.2375 5.2875 72.5375C4.5625 70.875 3.8375 69.2125 3.1 67.5625C2.8125 66.725 2.525 65.9 2.2375 65.0625C1.8125 63.4 1.3875 61.725 0.9625 60.0625C0.8125 59.225 0.6625 58.3875 0.5125 57.55C0.4375 56.6625 0.35 55.8375 0.25 55C0.1875 54.1625 0.1375 53.3375 0.075 52.5C0.05 51.6625 0.025 50.8375 0 50C0.0125 49.175 0.0375 48.3375 0.05 47.5125C0.1125 46.675 0.175 45.8375 0.2375 45C0.3375 44.175 0.4375 43.3375 0.525 42.5125C0.675 41.675 0.825 40.8375 0.975 40C1.4 38.3375 1.825 36.6625 2.25 35C2.5375 34.1625 2.825 33.3375 3.1125 32.5C3.8375 30.8375 4.575 29.175 5.3 27.5125C6.225 25.8125 7.175 24.1375 8.2125 22.5C8.4 22.225 8.575 21.9375 8.7625 21.6625C9.1625 21.1125 9.5625 20.55 9.975 20C10.4 19.45 10.825 18.9125 11.25 18.3625C11.5 18.075 11.7375 17.775 11.9875 17.4875C14.075 15.1125 16.35 12.925 18.775 10.9125C19.1875 10.65 19.575 10.3625 19.925 10.0125C20.375 9.6875 20.825 9.3625 21.275 9.0375C22.0375 8.525 22.8 8.025 23.5625 7.5125C23.625 7.475 23.7 7.425 23.7625 7.3875C24.5875 6.9125 25.425 6.4375 26.25 5.9625C26.875 5.6375 27.4875 5.3125 28.1125 4.9875C28.4 4.925 28.65 4.8 28.8875 4.625C29.675 4.2875 30.4625 3.9375 31.25 3.6C32.9125 3.025 34.5875 2.45 36.25 1.875C37.0875 1.6625 37.9125 1.45 38.75 1.2375C39.6 1.075 40.425 0.9125 41.2625 0.75ZM5.6625 55C5.7125 55.425 5.7625 55.8625 5.825 56.2875C5.8875 56.7 6.0625 56.5625 6.2625 56.375C7.85 55.5 9.4875 54.775 11.2625 54.375C12.1 54.325 12.9375 54.2625 13.7625 54.2125C14.5875 54.2125 15.425 54.2875 16.25 54.15C17.0875 54.2625 17.925 54.2125 18.7625 54.1375C19.5875 54.15 20.425 54.175 21.25 54.1875C22.0875 54.225 22.925 54.275 23.7625 54.3125C24.5875 54.4625 25.425 54.625 26.25 54.775C26.5 54.925 26.7625 55.0125 27.0625 55.025C27.625 55.2875 28.1875 55.5375 28.75 55.8C29.6125 56.3375 30.45 56.9 31.2375 57.5375C32.2625 58.5375 33.2125 59.6 33.9875 60.8125C34.475 61.5625 34.475 61.75 33.95 62.4875C33.875 62.5625 33.8 62.6375 33.725 62.7125C32.9875 63.3875 32.3375 64.1375 31.8125 65C31.5625 65.2875 31.35 65.6 31.225 65.9625C30.8875 66.4375 30.625 66.95 30.475 67.5125C30.0875 68.3 29.8625 69.15 29.7625 70.025C29.575 70.85 29.55 71.6875 29.6 72.5375C29.475 73.3625 29.5125 74.2 29.5375 75.025C29.5375 75.8625 29.525 76.7 29.525 77.525C29.525 78.3625 29.525 79.1875 29.525 80.025C29.525 80.8625 29.525 81.7 29.525 82.525C29.525 83.3625 29.5375 84.1875 29.5375 85.025C29.5 85.8625 29.475 86.7 29.5625 87.5375C29.55 88.1 29.5375 88.6625 29.5375 89.2125C29.5375 89.6 29.7125 89.8625 30.0875 90.025C30.55 90.2125 30.9875 90.45 31.4375 90.675C32.4125 91.1375 32.4125 91.1375 32.3375 90.0375C32.3375 89.2 32.3375 88.3625 32.3375 87.525C32.3375 86.7 32.3375 85.8625 32.3375 85.0375C32.3375 84.2 32.3375 83.3625 32.3375 82.525C32.3375 81.7 32.3375 80.8625 32.3375 80.0375C32.3375 79.2 32.3375 78.3625 32.3375 77.525C32.3375 76.7 32.3375 75.8625 32.3375 75.0375C32.3375 74.2 32.35 73.3625 32.35 72.525C32.35 71.6875 32.5 70.8625 32.625 70.025C32.9375 69.2 33.25 68.375 33.5625 67.55C33.625 67.425 33.6875 67.2875 33.7625 67.1625C34.2625 66.45 34.7625 65.7375 35.2625 65.025C35.5875 64.6875 35.925 64.35 36.25 64.0125C36.875 63.5125 37.5 63.025 38.1375 62.525C38.35 62.4 38.55 62.275 38.7625 62.1375C39.6 61.7625 40.4375 61.375 41.2625 61C42.1 60.8 42.925 60.6 43.7625 60.4C47.925 60.175 52.1 60.1375 56.2625 60.3875C57.1 60.5875 57.925 60.8 58.7625 61C59.6 61.375 60.4375 61.7625 61.2625 62.1375C61.475 62.2625 61.675 62.3875 61.8875 62.525C62.5125 63.0125 63.1375 63.5 63.7625 64C64.1 64.3375 64.425 64.6875 64.7625 65.025C65.25 65.7125 65.75 66.3875 66.2375 67.075C66.275 67.25 66.35 67.4125 66.4875 67.5375C66.8375 68.3625 67.1875 69.1875 67.425 70.0375C67.6 70.85 67.725 71.6875 67.8 72.5125C67.7875 73.35 67.7875 74.1875 67.775 75.0125C67.7625 75.85 67.7625 76.675 67.75 77.5125C67.75 78.35 67.75 79.175 67.75 80.0125C67.75 80.85 67.75 81.675 67.75 82.5125C67.75 83.35 67.7625 84.175 67.7625 85.0125C67.7625 85.85 67.7625 86.675 67.775 87.5125C67.775 88.35 67.775 89.1875 67.775 90.0125C67.775 90.3375 67.775 90.6625 67.775 91.05C68.1625 90.8625 68.475 90.725 68.7875 90.575C70.6625 89.6625 70.65 89.6625 70.525 87.575C70.525 87.55 70.5125 87.5375 70.5125 87.5125C70.5125 86.675 70.5125 85.85 70.5125 85.0125C70.5125 84.175 70.5 83.35 70.5 82.5125C70.5 81.675 70.5 80.85 70.5 80.0125C70.5 79.175 70.5 78.35 70.5 77.5125C70.5 76.675 70.5 75.85 70.5 75.0125C70.5 74.175 70.5 73.35 70.5 72.5125C70.5375 71.6625 70.5125 70.825 70.2625 70.0125C70.1625 69.1375 69.9125 68.3 69.5375 67.5C69.375 66.9125 69.1125 66.375 68.775 65.875C68.6625 65.55 68.475 65.275 68.25 65.0125C67.7125 64.1125 67.0625 63.3 66.2875 62.6C66.25 62.5625 66.225 62.525 66.1875 62.5C65.525 61.775 65.525 61.775 66.0625 60.9125C67.375 58.8 69.0875 57.075 71.2625 55.85C71.8625 55.575 72.45 55.3 73.05 55.025C73.3125 55.0125 73.5375 54.9125 73.775 54.8125C74.6 54.65 75.425 54.4875 76.2625 54.3375C77.1 54.275 77.9375 54.2125 78.775 54.1625C79.6125 54.15 80.4375 54.15 81.275 54.1375C82.1125 54.1375 82.9375 54.15 83.775 54.15C84.6125 54.2125 85.4375 54.225 86.275 54.1625C87.1125 54.2375 87.9375 54.3125 88.775 54.4C90.4875 54.8 92.1125 55.4375 93.65 56.2875C94.0875 56.7 94.3 56.5875 94.3375 56.0125C94.3625 55.6875 94.4 55.3625 94.4375 55.025C94.6 54.2 94.675 53.375 94.675 52.5375C94.8375 51.7 94.7875 50.8625 94.7625 50.025C94.7875 49.1875 94.825 48.3625 94.7 47.5375C94.7125 46.6875 94.625 45.8625 94.5 45.025C94.3375 43.3375 94.0375 41.675 93.6375 40.0375C93.4875 39.175 93.25 38.35 92.9875 37.525C92.7625 36.675 92.525 35.8375 92.1625 35.0375C91.9625 34.275 91.6875 33.55 91.3125 32.85C91.3 32.725 91.3 32.6 91.1875 32.525C90.8875 31.6625 90.5125 30.825 90.0375 30.0375C89.7 29.2375 89.3 28.4625 88.8 27.75C88.8 27.6625 88.775 27.575 88.675 27.5375C88.25 26.65 87.7 25.8375 87.125 25.05C86.8875 24.6375 86.6375 24.2375 86.3 23.8875C86.025 23.4 85.675 22.95 85.2875 22.5375C84.85 21.8875 84.3625 21.2875 83.8 20.75C83.6375 20.4625 83.425 20.2375 83.1625 20.0375C82.5875 19.325 81.9625 18.6625 81.2625 18.0625C81.0625 17.8875 80.875 17.7 80.675 17.525C80.1 16.8875 79.45 16.3375 78.7625 15.8125C78.4625 15.5125 78.15 15.2375 77.7875 15.025C77.325 14.5875 76.825 14.2125 76.2875 13.8875C74.725 12.675 73.0375 11.6375 71.2875 10.725C69.675 9.8125 68.0125 9.025 66.275 8.425C65.4625 8.05 64.6375 7.7375 63.775 7.5375L63.75 7.5125L63.725 7.5375C62.9375 7.1875 62.125 6.975 61.2875 6.8125C60.475 6.5375 59.625 6.375 58.7875 6.225C57.9625 6.05 57.1375 5.875 56.2875 5.825C55.4625 5.675 54.625 5.5375 53.7875 5.5625C52.9625 5.3875 52.125 5.425 51.2875 5.425C50.45 5.325 49.6125 5.325 48.775 5.425C47.9375 5.4125 47.1 5.3875 46.275 5.5625C45.425 5.55 44.6 5.675 43.775 5.825C42.925 5.8875 42.0875 6.05 41.25 6.25C40.4125 6.3875 39.575 6.55 38.775 6.825C37.95 6.9875 37.1375 7.2125 36.3625 7.55C36.325 7.5375 36.3 7.5375 36.2875 7.5625C35.425 7.7875 34.6 8.075 33.7875 8.45C32.05 9.075 30.3625 9.8375 28.775 10.7875C27.0125 11.675 25.35 12.7375 23.7875 13.9375C23.2625 14.25 22.7875 14.6125 22.35 15.025C21.95 15.2625 21.5875 15.55 21.275 15.9C20.6 16.3875 19.975 16.9375 19.4125 17.55C19.1625 17.7125 18.9625 17.925 18.775 18.15C18.1125 18.7375 17.4875 19.3625 16.925 20.05C16.7125 20.3 16.4875 20.5375 16.275 20.7875C15.725 21.325 15.25 21.925 14.8125 22.55C14.425 22.9875 14.075 23.4375 13.7875 23.9375C13.475 24.275 13.225 24.6375 13.0125 25.05C12.4125 25.8375 11.8875 26.675 11.425 27.55C11.375 27.6375 11.325 27.7375 11.275 27.825C10.7875 28.525 10.4125 29.275 10.0625 30.05C9.6125 30.8625 9.225 31.6875 8.9125 32.55C8.8125 32.675 8.75 32.825 8.75 32.9875C8.3875 33.6375 8.1625 34.35 7.925 35.05C7.625 35.8625 7.3125 36.6875 7.1375 37.55C6.825 38.35 6.6125 39.1875 6.4875 40.0375C6.0625 41.6875 5.75 43.35 5.6375 45.05C5.475 45.875 5.4 46.7125 5.4125 47.55C5.35 48.375 5.2625 49.2125 5.3375 50.05C5.2625 50.8875 5.3625 51.725 5.425 52.55C5.4625 53.3375 5.5125 54.175 5.6625 55Z" fill="#EAA636"/>
<path d="M53.75 58.1C52.0375 58.6375 50.2875 58.9 48.4875 58.6375C47.725 58.525 47 58.275 46.2625 58.1C45.8125 57.8875 45.375 57.6875 44.925 57.475C44.5375 57.225 44.15 56.9625 43.7625 56.7125C43.1375 56.1625 42.525 55.6125 41.975 55C41.7375 54.6875 41.5125 54.375 41.275 54.0625C40.9875 53.5375 40.7125 53 40.425 52.475C40.1375 51.6625 39.875 50.8375 39.7125 49.9875C39.575 49.1625 39.625 48.325 39.6 47.4875C39.7 46.6375 39.8625 45.8 40.1 44.9875C40.4125 44.125 40.8375 43.3125 41.275 42.5125C41.95 41.6375 42.65 40.8125 43.5 40.1C43.5875 40.025 43.675 39.95 43.7625 39.8875C44.5625 39.375 45.4 38.9125 46.2625 38.525C47.025 38.3375 47.7625 38.0875 48.55 37.975C50.325 37.7125 52.05 37.975 53.75 38.5C54.55 38.8875 55.35 39.275 56.1 39.7625C56.175 39.8875 56.3 39.975 56.4375 40.0125C57.2875 40.75 58.075 41.5625 58.75 42.475C58.7875 42.525 58.825 42.5875 58.8625 42.6375C59.3 43.4 59.675 44.1875 60 44.9875C60.175 45.825 60.3375 46.6625 60.5125 47.4875C60.5 48.325 60.525 49.15 60.4 49.9875C60.2125 50.8375 59.975 51.675 59.65 52.4875C59.35 53.0375 59.05 53.575 58.75 54.125C58.5375 54.4125 58.325 54.7 58.1 54.9875C57.475 55.575 56.8625 56.15 56.2375 56.7375C55.85 56.9875 55.4625 57.2375 55.075 57.4875C54.65 57.6875 54.2 57.9 53.75 58.1Z" fill="#EAA636"/>
<path d="M71.2625 53.0125C69.375 53.8 67.7125 54.9375 66.2625 56.3875C65.8625 56.7 65.5 57.0625 65.2125 57.4875C64.55 58.225 63.8625 58.9375 63.5 59.9C63.2625 60 63.0625 59.8625 62.85 59.775C62.325 59.55 61.7875 59.325 61.2625 59.0875C60.575 58.7625 59.8875 58.425 59.1625 58.0875C59.275 57.9375 59.3875 57.7875 59.5 57.65C60.975 56.2 62.05 54.5125 62.625 52.5125C62.975 51.7125 63.1 50.8625 63.2 50.0125C63.2875 49.175 63.3875 48.35 63.2375 47.5125C63.25 46.6625 63.0625 45.8375 62.8375 45.0125C62.35 43.1125 61.5125 41.4 60.2375 39.9C59.8125 39.3125 59.325 38.7875 58.75 38.35C58.45 38 58.0875 37.7125 57.675 37.4875C57.25 37.1 56.775 36.8125 56.25 36.6C56.0375 36.4625 56.1375 36.325 56.25 36.175C56.825 35.7875 57.4 35.3875 57.975 35C58.225 34.875 58.4875 34.7375 58.7375 34.6125C59.575 34.325 60.4 34.0375 61.2375 33.75C62.075 33.6875 62.9125 33.625 63.7375 33.5625C64.575 33.575 65.4 33.625 66.2375 33.525C67.075 33.6125 67.9125 33.6125 68.7375 33.525C69.5625 33.6125 70.4 33.6125 71.225 33.5375C71.5 33.575 71.7625 33.6 72.075 33.6375C71.75 34.1125 71.475 34.5375 71.1875 34.9625C70.625 35.75 70.175 36.5875 69.8625 37.5125C69.475 38.3 69.2875 39.1375 69.15 40C68.975 40.825 68.9125 41.6625 68.9625 42.5125C68.925 43.3625 68.9625 44.2125 69.175 45.0375C69.3 45.95 69.5375 46.8375 69.9625 47.6625C70.25 48.4875 70.6625 49.25 71.2125 49.9375C71.2 49.975 71.2125 50 71.25 50.0125C71.7375 50.8375 72.425 51.4875 73.075 52.2125C72.9 52.2875 72.75 52.3625 72.6 52.425C72.175 52.575 71.6875 52.7375 71.2625 53.0125Z" fill="#F2D6A9"/>
<path d="M8.73749 37.5C8.76249 37.475 8.77499 37.4375 8.77499 37.4C9.29999 36.5625 9.87499 35.75 10.525 35.0125C10.775 34.775 11.025 34.5375 11.275 34.3C12.75 33.125 14.4125 32.3625 16.25 31.9875C17.075 31.9625 17.9125 31.925 18.7375 31.9C19.575 32.0625 20.4 32.2375 21.2375 32.4C21.325 32.5125 21.4625 32.5 21.5875 32.5125C22.3125 32.875 23.0375 33.25 23.7625 33.6125C24.325 34.075 24.9 34.55 25.4625 35.0125C25.725 35.3125 25.9875 35.6125 26.2375 35.9125C26.575 36.4375 26.9125 36.975 27.25 37.5C27.5875 38.3125 27.9 39.15 28.15 40C28.2375 40.8375 28.325 41.6625 28.4 42.5C28.3375 43.3375 28.2375 44.175 28.05 45.0125C27.8125 45.825 27.475 46.6 27.125 47.3625C26.8375 47.8125 26.5375 48.25 26.25 48.7C25.85 49.1375 25.45 49.575 25.05 50.0125C24.575 50.375 24.1 50.75 23.625 51.1125C22.125 52.0125 20.5125 52.55 18.775 52.75C17.9375 52.7125 17.1125 52.675 16.275 52.6375C14.425 52.275 12.775 51.5 11.2875 50.3375C11.125 50.1875 10.95 50.025 10.7875 49.875C9.41249 48.5 8.48749 46.8625 7.91249 45.0125C7.79999 44.175 7.68749 43.3375 7.58749 42.5C7.67499 41.675 7.74999 40.85 7.83749 40.0125C8.06249 39.1625 8.34999 38.3125 8.73749 37.5Z" fill="#EAA636"/>
<path d="M91.2625 37.25C91.3125 37.3375 91.35 37.4125 91.4 37.5C91.75 38.325 92.1 39.15 92.3125 40.025C92.4875 40.8375 92.5375 41.675 92.5625 42.5C92.525 43.3375 92.375 44.1625 92.225 45C91.6375 46.9375 90.6125 48.6 89.1625 50.0125C88.9875 50.1 88.85 50.2125 88.75 50.375C87.2625 51.5125 85.6125 52.3 83.75 52.65C82.925 52.725 82.0875 52.775 81.25 52.75C79.4625 52.525 77.7875 51.95 76.2625 50.975C75.85 50.65 75.4375 50.325 75.025 50C74.6 49.5375 74.1875 49.075 73.7625 48.6125C73.5125 48.2375 73.275 47.875 73.025 47.5C72.625 46.6875 72.2875 45.8625 72 45.0125C71.875 44.175 71.7625 43.3375 71.6375 42.5125C71.725 41.675 71.8125 40.85 71.9 40.0125C72.175 39.1625 72.4625 38.325 72.85 37.5125C73.15 37.025 73.4625 36.5375 73.7625 36.05C74.0625 35.7125 74.35 35.3625 74.65 35.025C75.1875 34.575 75.725 34.125 76.2625 33.675C76.9875 33.3 77.7 32.9125 78.425 32.5375C78.55 32.525 78.675 32.5375 78.7625 32.425C79.5875 32.25 80.425 32.0875 81.25 31.9125C82.075 31.95 82.9125 31.9875 83.7375 32.025C85.5625 32.425 87.2375 33.15 88.725 34.2875C88.9875 34.525 89.25 34.7625 89.5125 35.0125C90.1875 35.7 90.7375 36.4625 91.2625 37.25Z" fill="#EAA636"/>
<path d="M36.2875 59.325C35.9125 58.65 35.4375 58.05 34.8875 57.5125C34.575 57.075 34.2 56.6875 33.775 56.35C33.3 55.8375 32.775 55.375 32.175 55C31.9125 54.725 31.6125 54.5125 31.2625 54.3625C30.4875 53.8 29.6625 53.325 28.75 53C28.3125 52.7375 27.85 52.5625 27.3625 52.425C27 52.3 27.1375 52.1375 27.3125 51.9375C27.825 51.325 28.35 50.725 28.75 50.025C29.325 49.2625 29.8 48.4375 30.125 47.525C30.55 46.75 30.775 45.9125 30.9375 45.05C31.1375 44.225 31.25 43.3875 31.2 42.525C31.225 41.675 31.1375 40.8375 30.9 40.0125C30.775 39.1375 30.525 38.3125 30.1375 37.5125C29.775 36.3875 29.1875 35.3875 28.575 34.3875C28.4 34.1125 28.3125 33.9125 28.75 33.875C29.575 33.775 30.4125 33.675 31.2375 33.5875C32.075 33.65 32.9125 33.6375 33.75 33.5875C34.575 33.6 35.4125 33.6125 36.2375 33.625C37.075 33.6375 37.9 33.65 38.7375 33.6625C39.5625 33.8 40.4125 33.7 41.2375 33.8875C42.0875 34.1625 42.925 34.5125 43.7375 34.8875C43.8125 34.9375 43.9 34.975 43.975 35.025C44.225 35.2 44.475 35.375 44.725 35.5375C45.1 35.775 45.2875 35.9625 44.7 36.175C44.3625 36.3 44.05 36.5125 43.725 36.6875C43.2375 36.9125 42.775 37.175 42.375 37.5375C41.8875 37.8 41.475 38.1375 41.0875 38.525C40.55 38.9625 40.0625 39.4375 39.6625 40.0125C38.4125 41.475 37.6 43.15 37.2 45.025C36.9125 45.8375 36.825 46.675 36.7625 47.525C36.7125 48.3625 36.625 49.2 36.8375 50.0375C36.85 50.9125 37.0875 51.7375 37.3875 52.5625C38.0375 54.525 39.1375 56.2 40.5875 57.6625C40.8875 57.9625 40.9375 58.15 40.45 58.3375C39.85 58.5625 39.2875 58.875 38.7125 59.1625C38.0625 59.3625 37.4625 59.6875 36.85 59.9875C36.7625 59.9625 36.675 59.95 36.6 59.925C36.5875 59.65 36.45 59.475 36.2875 59.325Z" fill="#F2D6A9"/>
<path d="M73.7625 18.375C74.1 18.9125 74.4375 19.4625 74.7875 20C75.125 20.8125 75.3875 21.6375 75.5375 22.5C75.6375 23.325 75.6375 24.1625 75.5375 25C75.3875 25.8625 75.125 26.7 74.7875 27.5125C74.4375 28.075 74.0875 28.6375 73.7375 29.2C73.4875 29.4625 73.2375 29.7375 73 30C72.425 30.425 71.85 30.85 71.2625 31.2875C68.825 32.55 66.325 32.7 63.7625 31.7625C62.875 31.325 62.0375 30.8125 61.2625 30.175C61.1875 30.1125 61.125 30.05 61.05 29.9875C59.7 28.575 58.825 26.9375 58.4875 25C58.4875 24.1625 58.4875 23.325 58.4875 22.5C58.825 20.5625 59.7125 18.9 61.1 17.5C61.15 17.45 61.2 17.4 61.25 17.3625C62.025 16.7375 62.8625 16.2125 63.7625 15.7875C65.875 15.05 67.9875 14.9625 70.1125 15.7625C70.5 15.9125 70.875 16.0875 71.25 16.25C71.825 16.675 72.4 17.1 72.9625 17.525C73.25 17.8 73.5 18.0875 73.7625 18.375Z" fill="#F2D6A9"/>
<path d="M31.2625 15.9875C32.075 15.6625 32.9 15.4125 33.7625 15.2375C35.1875 15.1375 36.575 15.2125 37.9375 15.7C40.1125 16.5 41.65 18 42.7375 20C43.0625 20.8125 43.3 21.65 43.5 22.5C43.5125 22.85 43.525 23.2 43.5375 23.5625C43.575 26.1375 42.6625 28.3 40.8 30.075C40.1875 30.65 39.475 31.075 38.775 31.5125C36.6125 32.45 34.4 32.6875 32.1375 31.875C31.85 31.775 31.5625 31.65 31.275 31.5375C29.475 30.625 28.1375 29.25 27.1875 27.4875C26.0875 25 26.075 22.5 27.2 20.0125C28.125 18.2375 29.5 16.9125 31.2625 15.9875Z" fill="#F2D6A9"/>
</svg>
