<svg width="100" height="97" viewBox="0 0 100 97" fill="none" xmlns="http://www.w3.org/2000/svg">
<path d="M34.8544 29.6116L52.5631 46.7379L73.6699 25.3204L66.3301 18.233L84.9126 13.2621C76.233 5.04854 64.5437 0 51.6505 0C24.9515 0 3.30098 21.6505 3.30098 48.3495C3.30098 52.7184 3.8835 56.9514 4.97088 60.9709L34.8544 29.6116Z" fill="#F2D6A9"/>
<path d="M18.0582 70.7378V83.1261C16 81.1261 14.1165 78.9708 12.4272 76.6407L18.0582 70.7378Z" fill="#EAA636"/>
<path d="M32.4272 55.6893V92.7184C28.5048 91.0097 24.8544 88.8155 21.5534 86.1747V67.0679L32.4272 55.6893Z" fill="#EAA636"/>
<path d="M46.7961 63.1263V96.4466C43.0291 96.0777 39.3786 95.2622 35.9223 94.0777V52.6214L46.7961 63.1263Z" fill="#EAA636"/>
<path d="M61.165 61.204V95.7477C58.0971 96.369 54.9126 96.6797 51.6505 96.6797C51.2039 96.6797 50.7378 96.6797 50.2912 96.6603V66.5049L53.301 69.4176L61.165 61.204Z" fill="#EAA636"/>
<path d="M75.534 46.2136V90.3883C72.1359 92.3301 68.5048 93.8446 64.6602 94.9126V57.5728L75.534 46.2136Z" fill="#EAA636"/>
<path d="M89.9029 41.5339V77.9223C86.8349 81.8834 83.165 85.3592 79.0291 88.1941V42.563L84.7573 36.5825L89.9029 41.5339Z" fill="#EAA636"/>
<path d="M100 48.3495C100 57.2427 97.5922 65.5922 93.398 72.7573V36.233L95.5728 28.0971C98.4078 34.2719 100 41.1262 100 48.3495Z" fill="#EAA636"/>
<path d="M95.7281 13.9806L73.2038 20L78.6407 25.2427L52.6213 51.6505L34.9514 34.5631L0 71.2621L6.79611 77.4757L35.534 47.3786L53.2039 64.466L84.6602 31.6505L89.7087 36.5049L95.7281 13.9806Z" fill="#EAA636"/>
</svg>
