<svg width="100" height="103" viewBox="0 0 100 103" fill="none" xmlns="http://www.w3.org/2000/svg">
<path d="M9.42343 80.1004C9.60729 77.3057 9.75438 74.8051 9.93825 72.3046C10.0486 71.0175 9.60729 70.0614 8.50411 69.3627C6.18743 67.7815 3.87075 66.1635 1.59084 64.5087C-0.137482 63.2585 -0.431664 62.1185 0.597972 60.2431C1.92179 57.7426 3.31915 55.3156 4.71652 52.8518C5.37843 51.7118 5.37843 50.6822 4.71652 49.579C3.35593 47.2623 2.06888 44.9089 0.745063 42.5187C-0.50521 40.2755 -0.211028 39.1723 1.84825 37.7014C3.94429 36.2305 6.04034 34.6861 8.17316 33.2887C9.49697 32.4062 10.0486 31.3765 9.90147 29.7585C9.64406 27.1476 9.49697 24.5 9.38666 21.8891C9.27634 19.3518 10.0118 18.4693 12.5123 18.0648C15.16 17.6235 17.8812 17.4029 20.492 16.7777C21.4481 16.5571 22.5513 15.6378 22.9926 14.7552C24.1325 12.4753 24.9783 10.0116 25.9344 7.62133C27.1111 4.75305 27.9937 4.31178 31.0458 5.26787C33.2522 5.96655 35.5321 6.55492 37.7017 7.32714C39.3932 7.95228 40.7538 7.6581 42.0408 6.40783C43.9163 4.56919 45.902 2.8041 47.8509 1.03901C49.4689 -0.358357 50.5721 -0.358357 52.1901 1.11255C54.1023 2.84087 55.9777 4.56919 57.8531 6.33428C59.1402 7.54778 60.5007 7.91551 62.2291 7.32714C64.4722 6.55492 66.7889 5.92978 69.0688 5.2311C71.9738 4.34855 72.8196 4.75305 73.9596 7.62133C74.8789 9.90124 75.7982 12.1444 76.6807 14.4611C77.2323 15.932 78.1149 16.741 79.7697 16.9248C82.4541 17.219 85.1017 17.6603 87.7493 18.1383C90.1028 18.5428 90.7647 19.3886 90.6544 21.7788C90.5073 24.4265 90.3234 27.0373 90.066 29.6482C89.8822 31.2294 90.3602 32.3326 91.684 33.2519C93.9272 34.7596 96.1335 36.3041 98.3031 37.8853C100.105 39.1723 100.362 40.3123 99.296 42.298C98.0089 44.6515 96.6851 47.0049 95.3613 49.3584C94.6258 50.6454 94.5891 51.8589 95.3613 53.1827C96.7219 55.4994 98.0457 57.8529 99.3328 60.2431C100.436 62.3024 100.215 63.2952 98.3399 64.6191C96.1335 66.2003 93.9639 67.7448 91.7208 69.2524C90.397 70.135 89.8822 71.2382 90.066 72.8194C90.3602 75.4302 90.5073 78.0779 90.6544 80.6887C90.7647 82.9319 89.9557 83.9615 87.7126 84.366C85.0649 84.8073 82.3805 85.2486 79.7329 85.5428C78.1884 85.7266 77.3059 86.4988 76.7543 87.8594C75.7982 90.3232 74.8053 92.7502 73.8125 95.1772C72.8564 97.5307 71.8268 98.0087 69.363 97.2733C66.8257 96.501 64.3251 95.7656 61.8246 94.9198C60.464 94.4418 59.324 94.6992 58.2944 95.692C56.3087 97.5307 54.3229 99.3693 52.3372 101.171C50.5353 102.789 49.5057 102.826 47.7406 101.208C45.8652 99.5164 43.9898 97.8616 42.1879 96.0965C40.8641 94.8095 39.43 94.4785 37.6649 95.0669C35.3114 95.8759 32.8844 96.5746 30.4942 97.31C28.1407 98.0087 27.0743 97.4939 26.155 95.2507C25.1254 92.7134 24.2428 90.0658 23.0293 87.602C22.5881 86.7195 21.4849 85.8737 20.5288 85.6163C18.2121 85.0279 15.8219 84.8073 13.4684 84.4763C9.79115 83.9983 9.27634 83.4099 9.42343 80.1004ZM83.1895 49.8732C82.6012 31.0456 65.8696 16.2629 46.5271 18.2486C29.722 19.977 15.16 35.2744 17.1089 54.8007C18.8005 71.6059 34.1347 86.2047 53.6242 84.2189C70.5029 82.4538 83.9985 67.5977 83.1895 49.8732Z" fill="#EAA636"/>
<path d="M77.2323 51.1234C77.3794 65.9429 65.2444 78.1882 50.1676 78.4088C35.385 78.6294 22.8455 66.1267 22.8455 51.197C22.8455 36.304 35.0908 24.0587 50.0205 24.0219C64.8399 23.9484 77.0852 36.1569 77.2323 51.1234ZM70.4294 46.3062C70.4294 44.5044 69.5836 43.6586 67.8921 43.4747C64.6561 43.1805 61.42 42.8496 58.184 42.7025C56.897 42.6289 56.419 42.0774 56.0145 41.0109C54.9113 38.1427 53.8081 35.3112 52.4843 32.5532C52.0798 31.7074 51.0134 30.8249 50.1308 30.641C48.8806 30.3468 48.1083 31.3765 47.6303 32.59C46.4535 35.5318 45.2768 38.5104 43.9898 41.4154C43.7324 41.967 42.9234 42.5554 42.335 42.6289C39.1725 42.9599 35.9733 42.9967 32.8109 43.4012C31.8548 43.5115 30.6781 44.3205 30.1265 45.1295C29.4646 46.1591 30.2368 47.1888 31.1561 47.9242C33.4728 49.8364 35.6791 51.8589 38.0694 53.6608C39.2829 54.5801 39.3932 55.4626 39.0255 56.7497C38.2532 59.5812 37.6649 62.4494 36.8926 65.2809C36.5249 66.568 36.5249 67.7447 37.7016 68.5537C38.8416 69.3627 39.908 68.9215 40.9376 68.2595C43.5853 66.6048 46.2697 65.0235 48.9173 63.332C49.7631 62.7804 50.3515 62.8172 51.1972 63.3688C53.8081 65.0603 56.4925 66.6783 59.1401 68.3331C60.2801 69.0318 61.3833 69.6569 62.6703 68.7376C64.0309 67.7815 63.5896 66.4577 63.2955 65.2074C62.6335 62.4127 62.0084 59.6179 61.2362 56.8232C60.9052 55.6097 61.0523 54.8743 62.1187 54.0285C64.509 52.1531 66.8256 50.1306 69.1055 48.0713C69.7675 47.5565 70.1352 46.7107 70.4294 46.3062Z" fill="#F2D6A9"/>
<path d="M70.4294 46.3062C70.4294 44.5044 69.5836 43.6586 67.8921 43.4747C64.6561 43.1805 61.4201 42.8496 58.1841 42.7025C56.897 42.629 56.419 42.0774 56.0145 41.011C54.9113 38.1427 53.8081 35.3112 52.4843 32.5532C52.0798 31.7075 51.0134 30.8249 50.1308 30.6411C48.8806 30.3469 48.1083 31.3765 47.6303 32.59C46.4536 35.5318 45.2768 38.5104 43.9898 41.4155C43.7324 41.967 42.9234 42.5554 42.335 42.629C39.1726 42.9599 35.9733 42.9967 32.8109 43.4012C31.8548 43.5115 30.6781 44.3205 30.1265 45.1295C29.4646 46.1591 30.2368 47.1888 31.1561 47.9242C33.4728 49.8364 35.6792 51.8589 38.0694 53.6608C39.2829 54.5801 39.3932 55.4626 39.0255 56.7497C38.2532 59.5812 37.6649 62.4495 36.8927 65.281C36.5249 66.568 36.5249 67.7447 37.7017 68.5537C38.8416 69.3627 39.908 68.9215 40.9377 68.2595C43.5853 66.6048 46.2697 65.0235 48.9173 63.332C49.7631 62.7804 50.3515 62.8172 51.1972 63.3688C53.8081 65.0603 56.4925 66.6783 59.1402 68.3331C60.2801 69.0318 61.3833 69.6569 62.6703 68.7376C64.0309 67.7815 63.5897 66.4577 63.2955 65.2074C62.6336 62.4127 62.0084 59.618 61.2362 56.8232C60.9052 55.6097 61.0523 54.8743 62.1187 54.0285C64.509 52.1531 66.8257 50.1306 69.1056 48.0713C69.7675 47.5565 70.1352 46.7107 70.4294 46.3062Z" fill="#EAA636"/>
</svg>
